<svg width="107" height="80" viewBox="0 0 107 80" fill="none" xmlns="http://www.w3.org/2000/svg">
<path d="M0.393311 79.1899V60.9399C0.393311 58.9399 1.39331 57.9399 3.39331 57.9399H6.13998C8.13998 57.9399 9.13998 58.9399 9.13998 60.9399V79.1899H0.393311Z" fill="#5D87FF"/>
<path d="M19.8867 79.1899V52.4399C19.8867 50.4399 20.8867 49.4399 22.8867 49.4399H25.6334C27.6334 49.4399 28.6334 50.4399 28.6334 52.4399V79.1899H19.8867Z" fill="#5D87FF"/>
<path d="M39.3799 79.1899V65.1899C39.3799 63.1899 40.3799 62.1899 42.3799 62.1899H45.1265C47.1265 62.1899 48.1265 63.1899 48.1265 65.1899V79.1899H39.3799Z" fill="#5D87FF"/>
<path d="M58.8733 79.1899V60.9399C58.8733 58.9399 59.8733 57.9399 61.8733 57.9399H64.62C66.62 57.9399 67.62 58.9399 67.62 60.9399V79.1899H58.8733Z" fill="#5D87FF"/>
<path d="M78.3667 79.1899V48.1899C78.3667 46.1899 79.3667 45.1899 81.3667 45.1899H84.1134C86.1134 45.1899 87.1134 46.1899 87.1134 48.1899V79.1899H78.3667Z" fill="#5D87FF"/>
<path d="M97.8599 79.1899V60.9399C97.8599 58.9399 98.8599 57.9399 100.86 57.9399H103.607C105.607 57.9399 106.607 58.9399 106.607 60.9399V79.1899H97.8599Z" fill="#5D87FF"/>
<path d="M0.393311 60.9399V34.1899C0.393311 32.1899 1.39331 31.1899 3.39331 31.1899H6.13998C8.13998 31.1899 9.13998 32.1899 9.13998 34.1899V60.9399H0.393311Z" fill="#49BEFF"/>
<path d="M19.8867 52.4399V21.4399C19.8867 19.4399 20.8867 18.4399 22.8867 18.4399H25.6334C27.6334 18.4399 28.6334 19.4399 28.6334 21.4399V52.4399H19.8867Z" fill="#49BEFF"/>
<path d="M39.3799 65.1899V51.1899C39.3799 49.1899 40.3799 48.1899 42.3799 48.1899H45.1265C47.1265 48.1899 48.1265 49.1899 48.1265 51.1899V65.1899H39.3799Z" fill="#49BEFF"/>
<path d="M58.8733 60.9399V34.1899C58.8733 32.1899 59.8733 31.1899 61.8733 31.1899H64.62C66.62 31.1899 67.62 32.1899 67.62 34.1899V60.9399H58.8733Z" fill="#49BEFF"/>
<path d="M78.3667 48.1899V17.1899C78.3667 15.1899 79.3667 14.1899 81.3667 14.1899H84.1134C86.1134 14.1899 87.1134 15.1899 87.1134 17.1899V48.1899H78.3667Z" fill="#49BEFF"/>
<path d="M97.8599 60.9399V34.1899C97.8599 32.1899 98.8599 31.1899 100.86 31.1899H103.607C105.607 31.1899 106.607 32.1899 106.607 34.1899V60.9399H97.8599Z" fill="#49BEFF"/>
<path d="M0.393311 34.1899V3.18994C0.393311 1.18994 1.39331 0.189941 3.39331 0.189941H6.13998C8.13998 0.189941 9.13998 1.18994 9.13998 3.18994V34.1899H0.393311Z" fill="#EAEFF4"/>
<path d="M19.8867 21.4399V3.18994C19.8867 1.18994 20.8867 0.189941 22.8867 0.189941H25.6334C27.6334 0.189941 28.6334 1.18994 28.6334 3.18994V21.4399H19.8867Z" fill="#EAEFF4"/>
<path d="M39.3799 51.1899V3.18994C39.3799 1.18994 40.3799 0.189941 42.3799 0.189941H45.1265C47.1265 0.189941 48.1265 1.18994 48.1265 3.18994V51.1899H39.3799Z" fill="#EAEFF4"/>
<path d="M58.8733 34.1899V3.18994C58.8733 1.18994 59.8733 0.189941 61.8733 0.189941H64.62C66.62 0.189941 67.62 1.18994 67.62 3.18994V34.1899H58.8733Z" fill="#EAEFF4"/>
<path d="M78.3667 17.1899V3.18994C78.3667 1.18994 79.3667 0.189941 81.3667 0.189941H84.1134C86.1134 0.189941 87.1134 1.18994 87.1134 3.18994V17.1899H78.3667Z" fill="#EAEFF4"/>
<path d="M97.8599 34.1899V3.18994C97.8599 1.18994 98.8599 0.189941 100.86 0.189941H103.607C105.607 0.189941 106.607 1.18994 106.607 3.18994V34.1899H97.8599Z" fill="#EAEFF4"/>
</svg>
