<svg width="133" height="135" viewBox="0 0 133 135" fill="none" xmlns="http://www.w3.org/2000/svg">
<path d="M120.246 98.5599C114.394 108.802 105.78 117.167 95.401 122.684C85.0219 128.202 73.3023 130.648 61.5995 129.738C49.8966 128.828 38.6893 124.599 29.2753 117.542C19.8613 110.485 12.6259 100.888 8.40682 89.8625L14.9007 87.3447C18.6472 97.1353 25.0723 105.657 33.4318 111.924C41.7914 118.191 51.7435 121.945 62.1355 122.754C72.5276 123.562 82.9345 121.39 92.1511 116.49C101.368 111.591 109.017 104.163 114.213 95.0679L120.246 98.5599Z" fill="#5D87FF"/>
<path d="M9.81883 93.252C5.40889 83.4815 3.57084 72.7331 4.48148 62.0407C5.39212 51.3483 9.02082 41.0716 15.0185 32.1992C21.0162 23.3268 29.1812 16.1572 38.7279 11.3801C48.2746 6.60289 58.882 4.37891 69.5296 4.92202C80.1773 5.46513 90.507 8.75707 99.5251 14.4812C108.543 20.2053 115.946 28.169 121.022 37.6062C126.098 47.0435 128.676 57.6367 128.508 68.367C128.341 79.0973 125.433 89.6037 120.064 98.8754L114.052 95.348C118.819 87.1148 121.401 77.7852 121.55 68.2568C121.699 58.7283 119.41 49.3216 114.903 40.9413C110.395 32.5611 103.821 25.4894 95.8132 20.4064C87.8052 15.3234 78.6325 12.4002 69.1775 11.9179C59.7224 11.4357 50.3031 13.4105 41.8257 17.6526C33.3482 21.8947 26.0978 28.2613 20.7719 36.1399C15.4459 44.0186 12.2237 53.1442 11.415 62.639C10.6064 72.1338 12.2386 81.6784 16.1546 90.3545L9.81883 93.252Z" fill="#49BEFF"/>
</svg>
