<svg width="37" height="37" viewBox="0 0 37 37" fill="none" xmlns="http://www.w3.org/2000/svg">
<rect x="0.696918" y="0.696918" width="35.5445" height="35.5445" rx="3.48459" fill="#5D87FF"/>
<path d="M16.4175 8.97203C16.4919 8.95716 17.2055 8.94973 18.5584 8.94973C19.7776 8.94973 20.5061 8.9646 20.744 8.99433C21.0562 9.0538 21.3312 9.18018 21.5691 9.37346C21.807 9.55187 21.9854 9.78975 22.1044 10.0871L22.1267 10.1094C22.1861 10.2729 22.2233 10.4291 22.2382 10.5777C22.253 10.7115 22.2605 11.0461 22.2605 11.5813V12.6295L25.851 12.6518C26.0294 12.6518 26.1558 12.6592 26.2301 12.6741C26.5423 12.7781 26.7356 12.9788 26.81 13.2762C26.8992 13.5735 26.8546 13.856 26.6761 14.1236C26.4977 14.3764 26.2301 14.5028 25.8733 14.5028L25.8287 14.9265C25.2935 21.498 25.0184 24.8134 25.0035 24.8729C24.9441 25.4973 24.6988 26.0326 24.2676 26.4786C23.8513 26.9246 23.3309 27.2071 22.7065 27.3261C22.6024 27.3409 21.2272 27.3484 18.5807 27.3484C15.9343 27.3484 14.5591 27.3409 14.455 27.3261C13.7265 27.1774 13.1466 26.8354 12.7155 26.3002C12.3884 25.869 12.2026 25.3933 12.158 24.8729C12.1431 24.8134 11.868 21.5054 11.3328 14.9488L11.2882 14.5028C10.9314 14.5028 10.6638 14.3764 10.4853 14.1236C10.3069 13.856 10.2549 13.581 10.3292 13.2985C10.4184 13.0011 10.6192 12.793 10.9314 12.6741C11.0057 12.6592 11.1321 12.6518 11.3105 12.6518L14.901 12.6295V11.6705C14.901 11.0758 14.9159 10.6744 14.9456 10.4662C15.0051 10.0797 15.1686 9.75258 15.4363 9.48496C15.7039 9.21735 16.031 9.04637 16.4175 8.97203ZM16.752 10.8007V12.6295H20.4095V10.8007H16.752ZM13.1392 14.5251C13.1392 14.7035 13.2805 16.4207 13.5629 19.6767L13.8752 23.401C13.9495 24.1295 14.0015 24.5979 14.0313 24.806C14.061 24.9547 14.0982 25.0588 14.1428 25.1182L14.1874 25.1628C14.3212 25.3264 14.4699 25.4304 14.6334 25.475C14.6929 25.4899 14.8936 25.4973 15.2355 25.4973H21.9037C22.2605 25.4973 22.4686 25.4899 22.5281 25.475C22.6916 25.4304 22.8403 25.3264 22.9741 25.1628L22.9964 25.1182C23.0559 25.0588 23.1005 24.9547 23.1302 24.806C23.16 24.5979 23.212 24.1295 23.2863 23.401L23.5986 19.6767C23.881 16.4207 24.0223 14.7035 24.0223 14.5251C24.0223 14.5102 22.2084 14.5028 18.5807 14.5028C14.9531 14.5028 13.1392 14.5102 13.1392 14.5251ZM15.86 16.9559C15.9641 16.6586 16.1499 16.4653 16.4175 16.3761C16.6851 16.2869 16.9453 16.3166 17.1981 16.4653C17.4508 16.5991 17.5995 16.8221 17.6441 17.1343C17.659 17.1938 17.6664 18.1825 17.6664 20.1004V22.1744C17.6664 22.5907 17.6515 22.8584 17.6218 22.9773C17.6218 23.0665 17.5921 23.1483 17.5326 23.2226L17.488 23.2895C17.3542 23.4828 17.1683 23.6092 16.9304 23.6686C16.7074 23.7132 16.4919 23.6835 16.2837 23.5794C16.0756 23.4605 15.9343 23.2821 15.86 23.0442C15.8451 22.9699 15.8302 22.8063 15.8154 22.5536V17.4689C15.8302 17.2012 15.8451 17.0303 15.86 16.9559ZM20.2756 16.3315C20.0972 16.3612 19.9263 16.4579 19.7627 16.6214C19.614 16.7701 19.5323 16.9411 19.5174 17.1343C19.5025 17.1938 19.4951 18.1825 19.4951 20.1004V22.1744C19.4951 22.5907 19.5025 22.8584 19.5174 22.9773C19.5323 23.0665 19.5694 23.1483 19.6289 23.2226L19.6512 23.2895C19.7999 23.4828 19.9857 23.6092 20.2087 23.6686C20.4466 23.7132 20.6696 23.6835 20.8778 23.5794C21.0859 23.4605 21.2272 23.2821 21.3015 23.0442C21.3164 22.9699 21.3238 22.8063 21.3238 22.5536V17.4912C21.3238 17.2087 21.3164 17.0303 21.3015 16.9559C21.2272 16.7478 21.0934 16.5842 20.9001 16.4653C20.7217 16.3464 20.5135 16.3017 20.2756 16.3315Z" fill="white"/>
<rect x="0.696918" y="0.696918" width="35.5445" height="35.5445" rx="3.48459" stroke="#5D87FF" stroke-width="1.39384"/>
</svg>
