<svg width="230" height="229" viewBox="0 0 230 229" fill="none" xmlns="http://www.w3.org/2000/svg">
<path d="M222.259 114.5C222.259 55.4734 174.401 7.58118 115.34 7.58118C56.2801 7.58118 8.42139 55.4398 8.42139 114.5C8.42139 173.56 56.2801 221.419 115.34 221.419C174.401 221.419 222.259 173.56 222.259 114.5Z" fill="url(#paint0_linear_309_130)"/>
<g filter="url(#filter0_d_309_130)">
<path d="M214.311 158.904C238.827 104.237 214.411 40.0458 159.745 15.5295C105.078 -8.98672 40.8861 15.4289 16.3699 70.0958C-8.14638 124.763 16.2692 188.954 70.9361 213.47C125.603 237.987 189.795 213.571 214.311 158.904Z" fill="url(#paint1_radial_309_130)"/>
</g>
<path opacity="0.34" d="M198.716 114.5C198.716 68.4525 161.388 31.1248 115.341 31.1248C69.2931 31.1248 31.9653 68.4525 31.9653 114.5C31.9653 160.548 69.2931 197.875 115.341 197.875C161.388 197.875 198.716 160.548 198.716 114.5Z" fill="url(#paint2_linear_309_130)"/>
<g opacity="0.51">
<path opacity="0.09" d="M115.34 14.2887C146.464 14.2887 175.206 28.4082 194.289 52.7902C198.246 57.8209 200.024 64.1596 199.487 70.2635C199.487 70.3642 199.487 70.4312 199.487 70.5318C199.353 71.8063 199.152 73.0807 198.816 74.3216C197.81 78.2791 195.899 81.8006 193.417 84.6848C191.371 87.066 188.822 89.0783 185.871 90.6546L185.703 90.7552C173.797 97.0939 158.303 94.0084 149.046 83.3769C145.021 78.7486 140.226 75.0595 134.859 72.41C128.018 69.0226 120.304 67.4128 112.389 67.7817C88.8454 68.8885 69.4605 88.4746 68.5885 112.052C68.2867 120 70.0306 127.58 73.3509 134.287C79.4883 146.629 90.9919 155.785 104.977 158.435C118.057 160.917 128.185 171.984 129.46 185.097V185.232V185.332C130.231 193.113 127.749 200.525 122.819 205.656C122.048 206.461 121.21 207.233 120.338 207.903C116.615 210.821 112.02 212.733 106.956 213.202C106.889 213.202 106.822 213.202 106.721 213.202C105.648 213.303 104.541 213.336 103.434 213.303C98.9068 213.102 94.2451 212.498 89.6504 211.291C46.3864 199.921 15.0955 160.414 15.0955 114.467C15.0955 59.2296 60.0363 14.2887 115.273 14.2887H115.34Z" fill="url(#paint3_linear_309_130)"/>
<path opacity="0.18" d="M115.341 15.9991C145.994 15.9991 174.267 29.9509 192.947 53.8634C196.838 58.8606 198.347 65.1993 197.374 71.0013C197.374 71.0684 197.374 71.169 197.341 71.2361C197.14 72.4435 196.838 73.6508 196.435 74.7911C195.194 78.4132 193.082 81.4652 190.6 83.7458C188.554 85.6239 186.072 87.2673 183.221 88.4411L183.054 88.5081C171.517 93.4047 156.525 90.0844 147.034 80.2578C142.942 75.965 138.079 72.6112 132.747 70.23C125.905 67.2116 118.325 65.87 110.578 66.4067C87.5375 68.05 68.6222 87.1666 67.2136 110.241C66.744 117.988 68.1861 125.467 71.171 132.175C76.6712 144.517 87.3698 153.941 100.584 157.294C112.926 160.481 122.886 171.246 124.999 183.588V183.722V183.823C126.274 191.168 124.698 198.043 120.908 202.805C120.304 203.577 119.667 204.248 118.996 204.885C116.112 207.568 112.356 209.714 107.795 210.62C107.727 210.62 107.66 210.62 107.593 210.653C106.621 210.855 105.614 210.989 104.575 211.056C100.349 211.291 95.7208 211.056 91.1596 209.882C48.1304 199.116 16.7725 160.045 16.7725 114.467C16.7725 60.1351 60.9419 15.9656 115.273 15.9656L115.341 15.9991Z" fill="url(#paint4_linear_309_130)"/>
<path d="M178.593 77.2395C178.593 77.2395 178.459 77.3066 178.392 77.3736C174.166 80.0567 168.666 78.9835 165.581 75.0595C153.574 59.7998 134.793 50.1408 113.764 50.6439C79.6899 51.4488 51.954 79.4865 51.4844 113.561C51.0149 146.428 75.397 173.728 107.023 177.82C111.853 178.457 115.508 182.549 115.475 187.412V187.613C115.441 193.415 110.343 197.909 104.575 197.138C63.6251 191.839 31.9653 156.859 31.9653 114.433C31.9653 68.3855 69.2931 31.0577 115.341 31.0577C142.037 31.0577 165.782 43.6009 181.042 63.0865C184.563 67.5806 183.423 74.1205 178.593 77.1724V77.2395Z" fill="url(#paint5_linear_309_130)"/>
</g>
<path d="M187.045 71.9406C182.953 74.5231 173.797 80.3251 170.544 82.3709C159.208 62.986 137.979 50.1074 113.798 50.6776C79.7231 51.4825 51.9873 79.5202 51.5178 113.595C51.0482 146.428 75.3632 173.695 106.956 177.853C111.752 178.491 115.374 182.549 115.374 187.412V187.68C115.374 193.482 110.243 197.976 104.508 197.238C63.5914 191.906 32.0322 156.926 32.0322 114.567C32.0322 68.5198 69.3599 31.192 115.408 31.192C145.894 31.192 172.556 47.5585 187.112 72.0077L187.045 71.9406Z" fill="url(#paint6_linear_309_130)"/>
<path d="M115.341 178.357C150.607 178.357 179.197 149.767 179.197 114.5C179.197 79.2336 150.607 50.6442 115.341 50.6442C80.0738 50.6442 51.4844 79.2336 51.4844 114.5C51.4844 149.767 80.0738 178.357 115.341 178.357Z" fill="url(#paint7_radial_309_130)"/>
<path d="M179.197 114.5C179.197 149.581 150.924 178.088 115.911 178.357C115.743 178.357 115.542 178.357 115.341 178.357C80.0587 178.357 51.4844 149.749 51.4844 114.467C51.4844 79.1849 80.0587 50.6106 115.341 50.6106C138.884 50.6106 159.477 63.355 170.544 82.3375C176.044 91.7617 179.197 102.762 179.197 114.5Z" fill="url(#paint8_radial_309_130)"/>
<path d="M71.1738 128.492L83.7354 102.826H69.3792V97.4005H90.5379V102.826L78.3518 128.492H71.1738ZM103.305 128.992C101.663 128.992 100.078 128.686 98.5474 128.074C97.0171 127.434 95.7095 126.544 94.6245 125.403C93.5394 124.235 92.8299 122.844 92.4961 121.23L98.2135 119.31C98.6308 120.646 99.2985 121.62 100.217 122.232C101.135 122.844 102.164 123.15 103.305 123.15C104.279 123.15 105.127 122.955 105.851 122.565C106.574 122.148 107.13 121.578 107.52 120.854C107.937 120.103 108.146 119.241 108.146 118.267C108.146 117.293 107.937 116.445 107.52 115.721C107.13 114.998 106.574 114.441 105.851 114.052C105.127 113.635 104.279 113.426 103.305 113.426C102.303 113.426 101.413 113.649 100.634 114.094C99.855 114.511 99.2846 115.165 98.923 116.055L93.6229 114.803L96.1268 97.4005H113.488V102.826H98.756L101.177 99.9045L99.4655 112.842L97.7127 111.298C98.4082 110.157 99.2846 109.322 100.342 108.794C101.427 108.265 102.818 108.001 104.515 108.001C106.602 108.001 108.396 108.446 109.899 109.336C111.401 110.199 112.556 111.395 113.363 112.925C114.197 114.455 114.615 116.236 114.615 118.267C114.615 120.298 114.114 122.134 113.112 123.776C112.138 125.389 110.803 126.669 109.106 127.615C107.409 128.533 105.475 128.992 103.305 128.992ZM123.222 128.492L148.346 97.4005H154.772L129.649 128.492H123.222ZM128.189 113.176C126.631 113.176 125.226 112.814 123.974 112.09C122.749 111.339 121.776 110.352 121.052 109.127C120.329 107.903 119.967 106.54 119.967 105.038C119.967 103.535 120.329 102.172 121.052 100.948C121.776 99.6958 122.749 98.7081 123.974 97.9847C125.226 97.2614 126.631 96.8997 128.189 96.8997C129.747 96.8997 131.138 97.2614 132.362 97.9847C133.586 98.7081 134.56 99.6958 135.283 100.948C136.007 102.172 136.368 103.535 136.368 105.038C136.368 106.54 136.007 107.903 135.283 109.127C134.56 110.352 133.586 111.339 132.362 112.09C131.138 112.814 129.747 113.176 128.189 113.176ZM128.189 108.585C128.94 108.585 129.566 108.418 130.067 108.084C130.567 107.722 130.943 107.277 131.193 106.749C131.444 106.192 131.569 105.622 131.569 105.038C131.569 104.426 131.444 103.855 131.193 103.327C130.943 102.798 130.567 102.367 130.067 102.033C129.566 101.671 128.94 101.49 128.189 101.49C127.437 101.49 126.811 101.671 126.311 102.033C125.81 102.367 125.42 102.798 125.142 103.327C124.892 103.855 124.766 104.426 124.766 105.038C124.766 105.622 124.892 106.192 125.142 106.749C125.42 107.277 125.81 107.722 126.311 108.084C126.811 108.418 127.437 108.585 128.189 108.585ZM149.765 128.992C148.206 128.992 146.801 128.631 145.549 127.907C144.325 127.156 143.352 126.168 142.628 124.944C141.905 123.72 141.543 122.357 141.543 120.854C141.543 119.352 141.905 117.989 142.628 116.765C143.352 115.513 144.325 114.525 145.549 113.802C146.801 113.078 148.206 112.716 149.765 112.716C151.323 112.716 152.714 113.078 153.938 113.802C155.162 114.525 156.136 115.513 156.859 116.765C157.583 117.989 157.944 119.352 157.944 120.854C157.944 122.357 157.583 123.72 156.859 124.944C156.136 126.168 155.162 127.156 153.938 127.907C152.714 128.631 151.323 128.992 149.765 128.992ZM149.765 124.402C150.516 124.402 151.142 124.235 151.643 123.901C152.143 123.539 152.519 123.094 152.769 122.565C153.02 122.009 153.145 121.439 153.145 120.854C153.145 120.242 153.02 119.672 152.769 119.143C152.519 118.615 152.143 118.184 151.643 117.85C151.142 117.488 150.516 117.307 149.765 117.307C149.041 117.307 148.415 117.488 147.887 117.85C147.386 118.184 146.996 118.615 146.718 119.143C146.468 119.672 146.342 120.242 146.342 120.854C146.342 121.439 146.468 122.009 146.718 122.565C146.996 123.094 147.386 123.539 147.887 123.901C148.415 124.235 149.041 124.402 149.765 124.402Z" fill="#2A3547"/>
<path d="M192.846 83.8794C196.234 76.3334 192.846 67.5129 185.334 64.1256C177.788 60.7382 168.967 64.1256 165.58 71.6381C162.193 79.1841 165.58 88.0046 173.092 91.3919C180.639 94.7792 189.459 91.3919 192.846 83.8794Z" fill="url(#paint9_radial_309_130)"/>
<path d="M186.876 81.1964C188.788 76.9706 186.876 72.007 182.651 70.0953C178.425 68.1836 173.428 70.0953 171.55 74.3211C169.638 78.5469 171.55 83.5105 175.775 85.4221C180.001 87.3338 184.965 85.4221 186.876 81.1964Z" fill="url(#paint10_linear_309_130)"/>
<defs>
<filter id="filter0_d_309_130" x="0.840332" y="0" width="229" height="229" filterUnits="userSpaceOnUse" color-interpolation-filters="sRGB">
<feFlood flood-opacity="0" result="BackgroundImageFix"/>
<feColorMatrix in="SourceAlpha" type="matrix" values="0 0 0 0 0 0 0 0 0 0 0 0 0 0 0 0 0 0 127 0" result="hardAlpha"/>
<feOffset/>
<feGaussianBlur stdDeviation="3"/>
<feComposite in2="hardAlpha" operator="out"/>
<feColorMatrix type="matrix" values="0 0 0 0 0 0 0 0 0 0 0 0 0 0 0 0 0 0 0.25 0"/>
<feBlend mode="normal" in2="BackgroundImageFix" result="effect1_dropShadow_309_130"/>
<feBlend mode="normal" in="SourceGraphic" in2="effect1_dropShadow_309_130" result="shape"/>
</filter>
<linearGradient id="paint0_linear_309_130" x1="46.1851" y1="45.3449" x2="185.267" y2="184.393" gradientUnits="userSpaceOnUse">
<stop stop-color="white"/>
<stop offset="0.3" stop-color="#FAFBFD"/>
<stop offset="0.62" stop-color="#EEF1F8"/>
<stop offset="0.94" stop-color="#D9E0F0"/>
<stop offset="1" stop-color="#D5DDEF"/>
</linearGradient>
<radialGradient id="paint1_radial_309_130" cx="0" cy="0" r="1" gradientUnits="userSpaceOnUse" gradientTransform="translate(-20.589 -103.933) scale(362.009 362.009)">
<stop stop-color="#BAC4DD"/>
<stop offset="0.02" stop-color="#BCC6DE"/>
<stop offset="0.27" stop-color="#D9DEEC"/>
<stop offset="0.52" stop-color="#EEF0F6"/>
<stop offset="0.77" stop-color="#FAFBFC"/>
<stop offset="1" stop-color="white"/>
</radialGradient>
<linearGradient id="paint2_linear_309_130" x1="31.9653" y1="114.5" x2="198.716" y2="114.5" gradientUnits="userSpaceOnUse">
<stop stop-color="#5D87FF"/>
<stop offset="1" stop-color="#49BEFF"/>
</linearGradient>
<linearGradient id="paint3_linear_309_130" x1="15.1625" y1="113.829" x2="199.588" y2="113.829" gradientUnits="userSpaceOnUse">
<stop stop-color="#FEFAF2"/>
<stop offset="1" stop-color="#FDF6F3"/>
</linearGradient>
<linearGradient id="paint4_linear_309_130" x1="16.8395" y1="113.561" x2="197.676" y2="113.561" gradientUnits="userSpaceOnUse">
<stop stop-color="#FCF5E5"/>
<stop offset="1" stop-color="#FBEEE7"/>
</linearGradient>
<linearGradient id="paint5_linear_309_130" x1="31.9653" y1="114.198" x2="183.087" y2="114.198" gradientUnits="userSpaceOnUse">
<stop stop-color="#EFCA70"/>
<stop offset="1" stop-color="#EAA17C"/>
</linearGradient>
<linearGradient id="paint6_linear_309_130" x1="31.9652" y1="114.198" x2="187.045" y2="114.198" gradientUnits="userSpaceOnUse">
<stop stop-color="#5D87FF"/>
<stop offset="1" stop-color="#49BEFF"/>
</linearGradient>
<radialGradient id="paint7_radial_309_130" cx="0" cy="0" r="1" gradientUnits="userSpaceOnUse" gradientTransform="translate(168.699 150.453) scale(128.115 128.115)">
<stop stop-color="#DAE0F2"/>
<stop offset="1" stop-color="white"/>
</radialGradient>
<radialGradient id="paint8_radial_309_130" cx="0" cy="0" r="1" gradientUnits="userSpaceOnUse" gradientTransform="translate(168.699 150.487) scale(128.115 128.115)">
<stop stop-color="#DAE0F2"/>
<stop offset="1" stop-color="white"/>
</radialGradient>
<radialGradient id="paint9_radial_309_130" cx="0" cy="0" r="1" gradientUnits="userSpaceOnUse" gradientTransform="translate(160.482 47.6584) scale(49.8709 49.8709)">
<stop stop-color="#BAC4DD"/>
<stop offset="0.02" stop-color="#BCC6DE"/>
<stop offset="0.27" stop-color="#D9DEEC"/>
<stop offset="0.52" stop-color="#EEF0F6"/>
<stop offset="0.77" stop-color="#FAFBFC"/>
<stop offset="1" stop-color="white"/>
</radialGradient>
<linearGradient id="paint10_linear_309_130" x1="170.812" y1="77.742" x2="187.614" y2="77.742" gradientUnits="userSpaceOnUse">
<stop stop-color="#5D87FF"/>
<stop offset="1" stop-color="#49BEFF"/>
<stop offset="1" stop-color="#49BEFF"/>
</linearGradient>
</defs>
</svg>
