<svg width="72" height="73" viewBox="0 0 72 73" fill="none" xmlns="http://www.w3.org/2000/svg">
<path d="M36 0.23877C41.6735 0.23877 47.2664 1.58155 52.3215 4.15733C57.3766 6.73311 61.7504 10.4687 65.0852 15.0588C68.4199 19.6489 70.6211 24.9631 71.5086 30.5668C72.3961 36.1706 71.9449 41.9049 70.1917 47.3009C68.4384 52.6968 65.4331 57.6012 61.4214 61.6131C57.4096 65.6249 52.5053 68.6304 47.1095 70.3836C41.7137 72.1369 35.9796 72.5882 30.376 71.7006C24.7724 70.813 19.4583 68.6118 14.8684 65.277L21.2079 56.5512C24.4208 58.8856 28.1407 60.4264 32.0632 61.0477C35.9857 61.669 39.9996 61.3531 43.7767 60.1258C47.5537 58.8986 50.9867 56.7948 53.795 53.9865C56.6032 51.1781 58.7069 47.7451 59.9342 43.9679C61.1614 40.1907 61.4773 36.1767 60.856 32.2541C60.2348 28.3314 58.694 24.6115 56.3596 21.3985C54.0253 18.1854 50.9636 15.5705 47.4251 13.7674C43.8865 11.9644 39.9714 11.0244 36 11.0244V0.23877Z" fill="#5D87FF"/>
<path d="M14.8684 65.2771C7.1545 59.6725 1.98294 51.2331 0.491355 41.8153C-1.00023 32.3976 1.31036 22.773 6.91481 15.059L15.6404 21.3986C11.7172 26.7985 10.0998 33.5357 11.1439 40.1281C12.188 46.7205 15.8081 52.6281 21.2078 56.5513L14.8684 65.2771Z" fill="#49BEFF"/>
<path d="M6.91479 15.0584C10.249 10.4693 14.6217 6.73431 19.6756 4.15864C24.7296 1.58298 30.3213 0.23976 35.9937 0.23877L35.9956 11.0241C32.0249 11.0248 28.1107 11.9651 24.5729 13.768C21.0352 15.571 17.9743 18.1855 15.6403 21.3979L6.91479 15.0584Z" fill="#FFAE1F"/>
</svg>
