<svg width="36" height="37" viewBox="0 0 36 37" fill="none" xmlns="http://www.w3.org/2000/svg">
<rect y="0.589966" width="36" height="36" rx="7" fill="#ECF2FF"/>
<path fill-rule="evenodd" clip-rule="evenodd" d="M14 12.59C14 13.6945 13.1046 14.59 12 14.59C10.8954 14.59 10 13.6945 10 12.59C10 11.4854 10.8954 10.59 12 10.59C13.1046 10.59 14 11.4854 14 12.59ZM26 12.59C26 13.6945 25.1046 14.59 24 14.59C22.8954 14.59 22 13.6945 22 12.59C22 11.4854 22.8954 10.59 24 10.59C25.1046 10.59 26 11.4854 26 12.59ZM26 18.59C26 19.6945 25.1046 20.59 24 20.59C22.8954 20.59 22 19.6945 22 18.59C22 17.4854 22.8954 16.59 24 16.59C25.1046 16.59 26 17.4854 26 18.59ZM24 26.59C25.1046 26.59 26 25.6945 26 24.59C26 23.4854 25.1046 22.59 24 22.59C22.8954 22.59 22 23.4854 22 24.59C22 25.6945 22.8954 26.59 24 26.59ZM18 14.59C19.1046 14.59 20 13.6945 20 12.59C20 11.4854 19.1046 10.59 18 10.59C16.8954 10.59 16 11.4854 16 12.59C16 13.6945 16.8954 14.59 18 14.59ZM14 18.59C14 19.6945 13.1046 20.59 12 20.59C10.8954 20.59 10 19.6945 10 18.59C10 17.4854 10.8954 16.59 12 16.59C13.1046 16.59 14 17.4854 14 18.59ZM18 20.59C19.1046 20.59 20 19.6945 20 18.59C20 17.4854 19.1046 16.59 18 16.59C16.8954 16.59 16 17.4854 16 18.59C16 19.6945 16.8954 20.59 18 20.59ZM14 24.59C14 25.6945 13.1046 26.59 12 26.59C10.8954 26.59 10 25.6945 10 24.59C10 23.4854 10.8954 22.59 12 22.59C13.1046 22.59 14 23.4854 14 24.59ZM18 26.59C19.1046 26.59 20 25.6945 20 24.59C20 23.4854 19.1046 22.59 18 22.59C16.8954 22.59 16 23.4854 16 24.59C16 25.6945 16.8954 26.59 18 26.59Z" fill="#49BEFF"/>
</svg>
