<svg width="20" height="20" viewBox="0 0 20 20" fill="none" xmlns="http://www.w3.org/2000/svg">
<path d="M12.0202 18.2164C11.8553 18.2575 11.6872 18.294 11.5203 18.3247C11.084 18.4059 10.7956 18.8255 10.8763 19.2622C10.9161 19.477 11.0381 19.6559 11.2038 19.7727C11.3745 19.8929 11.5918 19.9471 11.8132 19.906C12.012 19.8691 12.2123 19.8257 12.4088 19.7766C12.8396 19.6694 13.1021 19.233 12.9946 18.8023C12.8874 18.3714 12.4513 18.1091 12.0202 18.2164Z" fill="black"/>
<path d="M17.9659 7.43966C18.0222 7.60939 18.1298 7.74796 18.2656 7.8437C18.4669 7.98553 18.7304 8.03325 18.9819 7.95011C19.4035 7.81012 19.6319 7.35553 19.4924 6.93416C19.4289 6.74207 19.3584 6.54938 19.2833 6.36176C19.1184 5.94946 18.6507 5.74873 18.2382 5.91365C17.8261 6.07848 17.6253 6.54628 17.7903 6.95871C17.8534 7.1164 17.9126 7.27827 17.9659 7.43966Z" fill="black"/>
<path d="M14.6329 17.0684C14.491 17.162 14.3446 17.2527 14.1972 17.3376C13.8124 17.5595 13.6807 18.0513 13.9025 18.4359C13.9627 18.5405 14.043 18.626 14.1354 18.6913C14.3834 18.8658 14.7202 18.892 15.0007 18.7304C15.176 18.6293 15.3503 18.5217 15.5192 18.41C15.8896 18.1654 15.9915 17.6665 15.7467 17.296C15.502 16.9254 15.0033 16.8236 14.6329 17.0684Z" fill="black"/>
<path d="M19.9924 9.68518C19.9749 9.24142 19.6011 8.89602 19.1572 8.91334C18.7139 8.93084 18.3682 9.30475 18.3856 9.74834C18.3923 9.91794 18.394 10.0901 18.3901 10.2595C18.3838 10.5378 18.52 10.7859 18.7315 10.935C18.8575 11.0237 19.0104 11.0774 19.1762 11.0812C19.62 11.091 19.9878 10.7391 19.9976 10.2951C20.002 10.0926 20.0004 9.88751 19.9924 9.68518Z" fill="black"/>
<path d="M17.8347 14.9534C17.4789 14.6864 16.9754 14.7589 16.7089 15.1141C16.6068 15.2501 16.4994 15.3844 16.3893 15.5138C16.1017 15.8517 16.1423 16.3593 16.4802 16.6471C16.4995 16.6635 16.519 16.6785 16.5392 16.6926C16.8751 16.9294 17.342 16.875 17.6136 16.5562C17.7451 16.4019 17.8732 16.2414 17.9951 16.0789C18.2617 15.7237 18.1896 15.2199 17.8347 14.9534Z" fill="black"/>
<path d="M19.0166 12.0469C18.5929 11.9141 18.1417 12.1499 18.0089 12.5736C17.9581 12.7355 17.9018 12.8981 17.841 13.0574C17.7075 13.4081 17.8354 13.7939 18.1286 14.0006C18.1824 14.0384 18.2416 14.0704 18.306 14.0948C18.7208 14.2531 19.1854 14.0449 19.3435 13.6299C19.4157 13.4406 19.4827 13.2471 19.5432 13.0546C19.6759 12.6308 19.4402 12.1798 19.0166 12.0469Z" fill="black"/>
<path d="M8.51244 18.3319C7.79361 18.2029 7.10406 17.9831 6.45019 17.6766C6.44245 17.6725 6.43553 17.6679 6.4274 17.6642C6.27332 17.5917 6.11949 17.514 5.97039 17.4328C5.96988 17.4322 5.96893 17.4319 5.96811 17.4315C5.69455 17.2809 5.42757 17.1142 5.1682 16.9316C1.38608 14.2674 0.476712 9.02283 3.14111 5.24075C3.72048 4.41865 4.4216 3.7328 5.20324 3.18921C5.21287 3.1825 5.2225 3.17583 5.23204 3.16908C7.98643 1.27123 11.7265 1.14333 14.6512 3.09355L14.023 4.00116C13.8484 4.25378 13.9558 4.43787 14.2615 4.41036L16.9901 4.16608C17.2962 4.13856 17.4793 3.87377 17.397 3.57816L16.6642 0.938174C16.5822 0.642215 16.3722 0.606789 16.1974 0.859369L15.5678 1.76913C13.4214 0.328328 10.8471 -0.22107 8.29193 0.222008C8.03458 0.266548 7.78084 0.321063 7.53058 0.384519C7.52865 0.384863 7.5271 0.385078 7.52555 0.385422C7.51588 0.387787 7.50608 0.390925 7.49666 0.393548C5.29331 0.959369 3.37091 2.24445 1.99915 4.07798C1.98759 4.0917 1.97568 4.10511 1.96476 4.12003C1.91915 4.18147 1.87387 4.24432 1.82955 4.30718C1.75706 4.41019 1.68561 4.51577 1.61725 4.62136C1.6087 4.63409 1.60216 4.64703 1.59468 4.65988C0.462697 6.41401 -0.0833048 8.44196 0.0103324 10.5065C0.0105473 10.5133 0.0101604 10.5202 0.0103324 10.5271C0.0194037 10.7288 0.0353968 10.9333 0.0571079 11.1346C0.0582687 11.1475 0.0611492 11.1598 0.0633418 11.1728C0.0857838 11.3752 0.113944 11.5781 0.14924 11.781C0.507968 13.8505 1.48424 15.7128 2.94713 17.1619C2.95053 17.1653 2.95406 17.169 2.95749 17.1725C2.9587 17.1738 2.96003 17.1745 2.96119 17.1757C3.35423 17.5634 3.78174 17.922 4.24206 18.2462C5.4467 19.095 6.78811 19.6561 8.22869 19.9146C8.66579 19.9932 9.08333 19.7022 9.16175 19.2653C9.24013 18.8281 8.94941 18.4102 8.51244 18.3319Z" fill="black"/>
<path d="M9.50664 3.57678C9.14709 3.57678 8.85587 3.86827 8.85587 4.2273V10.7083L14.7832 13.7724C14.8786 13.8218 14.9808 13.845 15.0813 13.845C15.3167 13.845 15.5441 13.7168 15.6597 13.4931C15.8246 13.1739 15.6998 12.7816 15.3805 12.6168L10.1567 9.91608V4.2273C10.1566 3.86827 9.86575 3.57678 9.50664 3.57678Z" fill="black"/>
</svg>
