<svg width="20" height="20" viewBox="0 0 20 20" fill="none" xmlns="http://www.w3.org/2000/svg">
<path d="M19.6667 6.66667H9.66667C9.46667 6.66667 9.33333 6.8 9.33333 7V19.6667C9.33333 19.8667 9.46667 20 9.66667 20H19.6667C19.8667 20 20 19.8667 20 19.6667V7C20 6.8 19.8667 6.66667 19.6667 6.66667ZM19.3333 7.33333V9.33333H10C10 9.13333 10 8.8 10 8.66667H14V8H10C10 7.93333 10 7.33333 10 7.33333H19.3333ZM10 19.3333C10 19.3333 10 13.2333 10 10H19.3333V19.3333H10Z" fill="#2A3547"/>
<path d="M12.6667 10.6667H11.6667V11.3333H12.6667V10.6667Z" fill="#2A3547"/>
<path d="M14.3333 10.6667H13.3333V11.3333H14.3333V10.6667Z" fill="#2A3547"/>
<path d="M16 10.6667H15V11.3333H16V10.6667Z" fill="#2A3547"/>
<path d="M17.6667 10.6667H16.6667V11.3333H17.6667V10.6667Z" fill="#2A3547"/>
<path d="M12.3333 12.3333H11V13H12.3333V12.3333Z" fill="#2A3547"/>
<path d="M14.3333 12.3333H13V13H14.3333V12.3333Z" fill="#2A3547"/>
<path d="M16.3333 12.3333H15V13H16.3333V12.3333Z" fill="#2A3547"/>
<path d="M18.3333 12.3333H17V13H18.3333V12.3333Z" fill="#2A3547"/>
<path d="M12.3333 13.6667H11V14.3333H12.3333V13.6667Z" fill="#2A3547"/>
<path d="M14.3333 13.6667H13V14.3333H14.3333V13.6667Z" fill="#2A3547"/>
<path d="M16.3333 13.6667H15V14.3333H16.3333V13.6667Z" fill="#2A3547"/>
<path d="M18.3333 13.6667H17V14.3333H18.3333V13.6667Z" fill="#2A3547"/>
<path d="M12.3333 15H11V15.6667H12.3333V15Z" fill="#2A3547"/>
<path d="M14.3333 15H13V15.6667H14.3333V15Z" fill="#2A3547"/>
<path d="M16.3333 15H15V15.6667H16.3333V15Z" fill="#2A3547"/>
<path d="M18.3333 15H17V15.6667H18.3333V15Z" fill="#2A3547"/>
<path d="M12.3333 16.3333H11V17H12.3333V16.3333Z" fill="#2A3547"/>
<path d="M14.3333 16.3333H13V17H14.3333V16.3333Z" fill="#2A3547"/>
<path d="M16.3333 16.3333H15V17H16.3333V16.3333Z" fill="#2A3547"/>
<path d="M18.3333 16.3333H17V17H18.3333V16.3333Z" fill="#2A3547"/>
<path d="M12.3333 17.6667H11V18.3333H12.3333V17.6667Z" fill="#2A3547"/>
<path d="M14.3333 17.6667H13V18.3333H14.3333V17.6667Z" fill="#2A3547"/>
<path d="M16.3333 17.6667H15V18.3333H16.3333V17.6667Z" fill="#2A3547"/>
<path d="M18.3333 17.6667H17V18.3333H18.3333V17.6667Z" fill="#2A3547"/>
<path d="M0.666667 4.66667H4.33333C4.53333 4.66667 4.66667 4.53333 4.66667 4.33333V0.666667H16V5.33333H16.6667V0.333333C16.6667 0.133333 16.5333 0 16.3333 0H4.33333C4.3 0 4.26667 0 4.23333 0.0333333H4.2C4.16667 0.0666667 4.13333 0.0666667 4.1 0.1L0.1 4.1C0.0666667 4.13333 0.0666667 4.16667 0.0333333 4.2V4.23333C0.0333333 4.26667 0 4.3 0 4.33333V8H0.666667C0.666667 8 0.666667 5.03333 0.666667 4.66667ZM4 4H1.13333L4 1.13333V4Z" fill="#2A3547"/>
<path d="M8.33333 14.3333H4.66667V9.66667C4.66667 9.46667 4.53333 9.33333 4.33333 9.33333H0.333333C0.133333 9.33333 0 9.46667 0 9.66667V19.6667C0 19.8667 0.133333 20 0.333333 20H8.33333C8.53333 20 8.66667 19.8667 8.66667 19.6667V14.6667C8.66667 14.4667 8.53333 14.3333 8.33333 14.3333ZM0.666667 15H4V16H0.666667V15ZM4 14.3333H0.666667V13.3333H4V14.3333ZM4 12.6667H0.666667V11.6667H4V12.6667ZM0.666667 16.6667H4V17.6667H0.666667V16.6667ZM4.66667 16.6667H8V17.6667H4.66667V16.6667ZM8 16H4.66667V15H8V16ZM0.666667 10H4V11H0.666667V10ZM0.666667 18.3333H4V19.3333H0.666667V18.3333ZM8 19.3333H4.66667V18.3333H8V19.3333Z" fill="#2A3547"/>
<path d="M15 1.66667H12.6667V2.33333H15V1.66667Z" fill="#2A3547"/>
<path d="M15 3.33333H9V4H15V3.33333Z" fill="#2A3547"/>
<path d="M15.6667 8H14.6667V8.66667H15.6667V8Z" fill="#2A3547"/>
</svg>
