<svg width="17" height="17" viewBox="0 0 17 17" fill="none" xmlns="http://www.w3.org/2000/svg">
<g clip-path="url(#clip0_248_1440)">
<path d="M12.7822 0.0331572H13.4777C13.6502 0.104383 13.8329 0.150835 13.9957 0.24772C14.6013 0.606504 14.9154 1.16481 15.0738 1.82708C15.1026 1.94697 15.145 2.00581 15.2782 2.01112C16.2267 2.05093 16.9991 2.85831 16.9995 3.81079C17.0008 7.607 17.0008 11.4037 16.9995 15.1999C16.9995 16.1745 16.182 16.9982 15.2078 16.9987C10.7384 17.0013 6.269 16.9995 1.79913 17C1.59785 17 1.4032 16.9615 1.21828 16.8876C0.554257 16.6231 0.167612 16.1289 0.0335693 15.4312V3.47722C0.0521495 3.4259 0.0742688 3.37547 0.0884252 3.32282C0.283075 2.60481 0.993547 2.03456 1.73631 2.01112C1.86726 2.00713 1.91681 1.95493 1.94556 1.83371C2.11455 1.11747 2.46094 0.525988 3.14664 0.185342C3.26431 0.126945 3.38951 0.0835905 3.51116 0.0331572C3.74297 0.0331572 3.97478 0.0331572 4.20659 0.0331572C4.46052 0.123849 4.71534 0.211886 4.93211 0.381766C5.40988 0.756477 5.67532 1.2586 5.80582 1.83947C5.83148 1.95449 5.88014 2.0151 6.00489 2.0089C6.13142 2.00271 6.25882 2.00227 6.38534 2.0089C6.50258 2.0151 6.55743 1.95891 6.57778 1.85185C6.58796 1.79788 6.60079 1.74435 6.61583 1.69126C6.8034 1.03298 7.14934 0.49679 7.78284 0.1849C7.90096 0.126945 8.02571 0.0831481 8.14781 0.0327148C8.37962 0.0327148 8.61143 0.0327148 8.84324 0.0327148C8.93614 0.0658946 9.03081 0.0955353 9.12239 0.133139C9.78552 0.404771 10.1598 0.928127 10.3757 1.58464C10.5146 2.00758 10.5101 2.00359 10.9556 2.01067C11.114 2.01333 11.1866 1.97041 11.2268 1.80452C11.3967 1.10066 11.7444 0.518909 12.4195 0.1849C12.5372 0.126503 12.6624 0.0831481 12.7845 0.0331572H12.7822ZM8.51941 7.00003C6.10797 7.00003 3.69697 7.00003 1.28552 7.00003C1.04442 7.00003 1.03911 7.0049 1.03911 7.25397C1.03911 9.86411 1.03911 12.4738 1.03911 15.084C1.03911 15.637 1.38462 15.982 1.93848 15.982C6.31987 15.982 10.7008 15.982 15.0822 15.982C15.6343 15.982 15.9825 15.6352 15.9825 15.0831C15.9829 12.4676 15.9825 9.85217 15.9825 7.23671C15.9825 7.00268 15.9785 7.00003 15.7369 7.00003C13.3312 7.00003 10.9256 7.00003 8.51941 7.00003ZM8.51676 5.98207C10.9278 5.98207 13.3392 5.98207 15.7502 5.98207C15.9785 5.98207 15.982 5.97853 15.982 5.74937C15.982 5.14815 15.9829 4.54649 15.982 3.94528C15.9811 3.36928 15.6405 3.0273 15.0672 3.02686C14.2779 3.02642 13.4892 3.02686 12.7 3.02686C12.5898 3.02686 12.4792 3.0273 12.3691 3.02686C12.2779 3.02597 12.2562 3.06889 12.2748 3.15427C12.3708 3.60065 12.7548 3.95059 13.2025 3.99659C13.4777 4.02491 13.6648 4.24655 13.6542 4.53234C13.6445 4.79955 13.4339 5.00216 13.1623 5.01367C12.9083 5.02473 12.6685 4.97031 12.4425 4.8606C11.7519 4.52614 11.3993 3.93466 11.2242 3.2193C11.1874 3.06889 11.126 3.02376 10.9791 3.02421C9.91956 3.02863 8.86049 3.02642 7.80098 3.02642C7.77886 3.02642 7.75674 3.0273 7.73462 3.02642C7.64482 3.02421 7.62004 3.06579 7.63774 3.15206C7.72843 3.59224 8.11994 3.9497 8.56542 3.99527C8.84236 4.02358 9.02727 4.24168 9.01798 4.52924C9.00958 4.79689 8.80033 5.00039 8.5287 5.01234C8.26902 5.02384 8.02438 4.96677 7.79346 4.85352C7.14669 4.53676 6.79942 3.98686 6.61096 3.31751C6.52912 3.0273 6.59813 3.02465 6.22874 3.02509C5.23028 3.02642 4.23137 3.02509 3.23246 3.02509C3.18822 3.02509 3.14398 3.02332 3.10019 3.0273C3.01525 3.03482 2.99092 3.07995 3.00773 3.164C3.09178 3.59136 3.4886 3.95191 3.92656 3.99438C4.20438 4.02137 4.3893 4.23682 4.38178 4.5257C4.37514 4.79379 4.16589 5.00039 3.89515 5.01145C3.49657 5.02782 3.14708 4.89289 2.83476 4.65798C2.34415 4.28858 2.07828 3.77717 1.94512 3.19055C1.91282 3.04854 1.85399 3.01315 1.71419 3.04456C1.30277 3.13746 1.04088 3.45289 1.03867 3.88688C1.03557 4.51022 1.03734 5.134 1.03779 5.75734C1.03779 5.96747 1.05061 5.97986 1.26517 5.97986C3.68192 5.97986 6.09868 5.97986 8.51543 5.97986L8.51676 5.98207ZM13.1176 2.00802C13.3596 2.00802 13.6015 2.00935 13.8435 2.00758C14.0147 2.00625 14.0466 1.96865 13.9931 1.81248C13.9032 1.55191 13.7581 1.32628 13.5241 1.17189C13.3529 1.05863 13.1671 1.00245 12.9619 1.0781C12.5726 1.22188 12.3907 1.54129 12.27 1.90715C12.2372 2.00669 12.3226 2.00802 12.3912 2.00802C12.6332 2.00802 12.8751 2.00802 13.1171 2.00802H13.1176ZM8.49552 2.00758C8.7437 2.00758 8.99232 2.00536 9.2405 2.00846C9.36437 2.01023 9.4002 1.95316 9.36437 1.84256C9.26616 1.53864 9.09982 1.28381 8.81316 1.12721C8.57029 0.994929 8.33494 1.02944 8.11419 1.18649C7.8899 1.34619 7.75939 1.57358 7.65986 1.82354C7.60854 1.95272 7.64128 2.01067 7.78373 2.0089C8.02084 2.00581 8.25841 2.00802 8.49552 2.00758ZM3.86021 2.00758C3.86021 2.00758 3.86021 2.00669 3.86021 2.00581C4.09733 2.00581 4.33444 2.00846 4.57156 2.00492C4.72596 2.00271 4.76665 1.95272 4.71799 1.81027C4.62465 1.53775 4.4707 1.30416 4.21987 1.15021C3.98009 1.00333 3.73944 1.01262 3.50497 1.16702C3.26387 1.32584 3.12806 1.56208 3.0241 1.8231C2.97278 1.95139 3.0064 2.01023 3.14885 2.00846C3.38597 2.00536 3.62309 2.00758 3.86021 2.00758Z" fill="#2A3547"/>
<path d="M8.49691 14.98C7.74662 14.98 6.99633 14.9809 6.24605 14.98C5.88329 14.9791 5.68201 14.7787 5.68422 14.4173C5.68687 13.9443 5.64706 13.4688 5.7926 13.006C5.98991 12.38 6.3447 11.8668 6.88662 11.4943C7.02465 11.3992 7.01801 11.3426 6.92378 11.2161C6.47211 10.6064 6.37434 9.93444 6.66233 9.2328C6.95475 8.52098 7.51216 8.10115 8.26864 8.01532C9.10828 7.92021 9.79442 8.24493 10.228 8.97975C10.6588 9.71015 10.6151 10.4529 10.1413 11.1608C9.99261 11.3824 9.98863 11.3758 10.1974 11.5372C10.9433 12.1132 11.3282 12.8715 11.337 13.816C11.3388 14.0257 11.3384 14.2354 11.337 14.4451C11.3348 14.7725 11.1287 14.9795 10.7973 14.9804C10.0307 14.9822 9.26356 14.9809 8.49691 14.9813V14.98ZM8.51372 13.9625C8.97645 13.9625 9.43963 13.9625 9.90237 13.9625C10.2041 13.9625 10.3322 13.8098 10.2868 13.5046C10.1603 12.6534 9.33257 11.9677 8.47479 12.0026C7.50773 12.042 6.76541 12.7693 6.70259 13.7391C6.6902 13.9306 6.71763 13.9616 6.90963 13.962C7.44403 13.9629 7.97887 13.962 8.51328 13.9625H8.51372ZM9.49095 10.0026C9.4936 9.48674 9.04414 9.03195 8.52168 9.02133C8.00321 9.01072 7.54003 9.46683 7.52941 9.99815C7.51968 10.5051 7.98153 10.9732 8.49912 10.9812C9.0176 10.9891 9.48785 10.525 9.49095 10.0026Z" fill="#2A3547"/>
</g>
<defs>
<clipPath id="clip0_248_1440">
<rect width="17" height="17" fill="white"/>
</clipPath>
</defs>
</svg>
