<svg width="20" height="27" viewBox="0 0 20 27" fill="none" xmlns="http://www.w3.org/2000/svg">
<path d="M19.8566 25.4263C19.6554 25.9386 19.234 26.1571 18.718 26.2494C18.618 26.2494 18.518 26.2494 18.418 26.25C18.3389 26.2471 18.2597 26.2424 18.1812 26.2424C12.5384 26.2424 6.89501 26.2424 1.25223 26.2424C0.586835 26.2424 0 25.6863 0 25.039C0.00535651 17.1413 0.0113081 9.24352 0.0232115 1.34517C0.0232115 1.15006 0.0922511 0.955537 0.128556 0.760429C0.164266 0.70143 0.200571 0.641846 0.236281 0.582846C0.416022 0.1938 0.781455 0.0909886 1.15939 0.0127119C1.25461 -0.00714931 1.35639 0.00219714 1.45518 0.00219714C5.98976 0.00219714 10.5243 0.00219714 15.0595 0.00219714C15.1286 0.00219714 15.1976 0.00803867 15.2666 0.0115436C15.2738 0.0349098 15.2815 0.05886 15.2887 0.0822262C15.3029 0.05886 15.3178 0.0349098 15.3321 0.0115436C15.4821 0.0880678 15.6606 0.135384 15.7773 0.245789C16.6742 1.08989 17.5574 1.94802 18.4484 2.79854C18.8954 3.22498 19.3596 3.63447 19.7923 4.07317C19.8923 4.17423 19.9375 4.36583 19.9387 4.51654C19.9494 6.01256 19.9452 7.50858 19.9452 9.0046C19.9452 14.2217 19.9452 19.4382 19.9441 24.6553C19.9441 24.7762 19.925 24.8965 19.9149 25.0168C19.8952 25.056 19.875 25.0951 19.8554 25.1343C19.872 25.1927 19.8887 25.2505 19.9054 25.3089C19.8893 25.3481 19.8732 25.3866 19.8566 25.4258V25.4263ZM14.9274 3.79277C14.9226 3.75422 14.9179 3.71508 14.9131 3.67653C14.9137 2.86105 14.9012 2.04498 14.9226 1.22951C14.9304 0.939765 14.8619 0.854478 14.5512 0.855647C11.1463 0.867914 7.74194 0.86324 4.33698 0.86324C3.34722 0.86324 2.35746 0.862656 1.36769 0.863825C0.994525 0.863825 0.905845 0.954369 0.900488 1.32764C0.898703 1.43454 0.900488 1.54144 0.900488 1.64834C0.900488 5.5429 0.901679 9.43804 0.900488 13.3326C0.899298 17.1886 0.896322 21.044 0.88918 24.9C0.88918 25.1652 0.990359 25.3358 1.24688 25.4164C1.32841 25.4065 1.41055 25.3971 1.49208 25.3872C1.61052 25.3855 1.72956 25.3825 1.84799 25.3825C7.34258 25.3825 12.8366 25.3825 18.3312 25.3825C18.4502 25.3825 18.5722 25.3971 18.6865 25.3749C18.7805 25.3568 18.8656 25.2943 18.9549 25.2517C18.9692 25.233 18.984 25.2137 18.9983 25.195C19.0204 25.0934 19.0614 24.9911 19.0614 24.8895C19.0644 18.2816 19.0632 11.6736 19.068 5.06565C19.068 4.85301 19.0079 4.77707 18.7823 4.77999C17.9306 4.79109 17.0789 4.77006 16.2278 4.78934C15.5952 4.80336 15.2166 4.49493 14.9845 3.95575C14.9661 3.90143 14.947 3.84768 14.9286 3.79336L14.9274 3.79277ZM18.2437 3.78868C17.9973 3.55794 17.7503 3.32779 17.5045 3.09646C16.9682 2.59175 16.432 2.08704 15.8963 1.58233C15.8713 1.56306 15.8463 1.54378 15.8219 1.5245C15.8178 1.56189 15.8136 1.59927 15.8094 1.63724C15.8124 2.31662 15.8148 2.99599 15.8178 3.67536C15.8314 3.69873 15.8457 3.72268 15.8594 3.74604C15.9737 3.80446 16.0874 3.91194 16.2022 3.91369C16.8819 3.92596 17.5622 3.91369 18.2419 3.9096C18.2425 3.8693 18.2437 3.82899 18.2443 3.78868H18.2437Z" fill="#2A3547"/>
<path d="M18.4175 26.25C18.5174 26.25 18.6174 26.25 18.7174 26.2494C18.6174 26.2494 18.5174 26.2494 18.4175 26.25Z" fill="#404040"/>
<path d="M19.8554 25.1348C19.875 25.0957 19.8952 25.0566 19.9149 25.0174C19.9435 25.0373 19.9714 25.0566 20 25.0764C19.9518 25.0957 19.9036 25.115 19.856 25.1348H19.8554Z" fill="#F9F9F9"/>
<path d="M19.8566 25.4263C19.8726 25.3872 19.8887 25.3486 19.9054 25.3095C19.8893 25.3486 19.8732 25.3872 19.8566 25.4263Z" fill="#F9F9F9"/>
<path d="M15.3327 0.0121295C15.3184 0.0354956 15.3035 0.0594461 15.2893 0.0828123C15.2821 0.0594461 15.2744 0.0354956 15.2672 0.0121295H15.3333H15.3327Z" fill="#404040"/>
<path d="M1.24569 25.4164C1.30878 25.254 1.39448 25.2791 1.4909 25.3872C1.40936 25.3971 1.32723 25.4065 1.24569 25.4164Z" fill="#DFDFDF"/>
<path d="M14.9048 3.85353C14.8732 3.81789 14.8411 3.78226 14.8095 3.74663C14.8441 3.72326 14.8786 3.69931 14.9131 3.67594C14.9179 3.7145 14.9226 3.75364 14.9274 3.79219C14.9197 3.81264 14.9125 3.83308 14.9048 3.85294V3.85353Z" fill="#C7C7C7"/>
<path d="M14.9048 3.85353C14.9125 3.83308 14.9197 3.81264 14.9274 3.79277C14.9458 3.8471 14.9649 3.90084 14.9833 3.95517C14.9572 3.92129 14.931 3.88741 14.9048 3.85353Z" fill="#030303"/>
<path d="M15.8957 1.58117C15.8666 1.59928 15.8374 1.61739 15.8082 1.63608L15.8207 1.52334C15.8457 1.54261 15.8707 1.56189 15.8951 1.58117H15.8957Z" fill="#CCCCCC"/>
<path d="M18.1794 23.4437C18.1812 23.8047 18.0199 23.9438 17.6539 23.9747C17.2295 24.0109 16.7903 24.0401 16.67 24.5881C16.6397 24.7265 16.5028 24.865 16.379 24.9567C16.1737 25.1086 15.8814 25.0128 15.7059 24.7663C15.4238 24.3714 15.1297 23.9841 14.8679 23.5769C14.7232 23.352 14.625 23.4361 14.5209 23.581C14.2328 23.9817 13.9543 24.3895 13.6686 24.792C13.3919 25.1816 13.0502 25.1594 12.8372 24.74C12.7479 24.5653 12.6961 24.3585 12.5664 24.2218C12.4628 24.1126 12.2706 24.0723 12.1099 24.0308C11.9527 23.9905 11.7843 23.9905 11.6218 23.9671C11.2832 23.9181 11.1177 23.5623 11.3112 23.2819C11.7575 22.6347 12.2105 21.9915 12.6586 21.3495C11.2326 19.5941 12.0938 17.6793 13.4877 17.0204C13.5085 17.004 13.5293 16.9882 13.5502 16.9719C13.6281 16.9491 13.7067 16.9257 13.7847 16.9029C13.8049 16.8872 13.8257 16.8708 13.846 16.855C14.0953 16.8352 14.3441 16.8153 14.5935 16.7955C15.1232 16.7528 15.6148 16.8948 16.0957 17.0893C16.1558 17.1296 16.2165 17.1705 16.2766 17.2108C16.8855 17.6431 17.289 18.2068 17.4241 18.9405C17.4533 19.0982 17.461 19.26 17.4783 19.4195C17.4783 19.4586 17.4783 19.4972 17.4783 19.5363C17.4545 19.7875 17.4301 20.0381 17.4063 20.2893L17.3009 20.4698C17.1265 20.7595 16.9521 21.0493 16.7611 21.3676C17.2045 21.9991 17.6705 22.6627 18.1359 23.3263C18.1502 23.3654 18.1645 23.4046 18.1788 23.4443L18.1794 23.4437ZM16.9414 23.1487C16.595 22.6604 16.2814 22.1843 15.932 21.7357C15.6654 21.3933 15.6838 21.1182 16.0154 20.7958C16.4897 20.3343 16.7379 19.7589 16.5701 19.0783C16.2302 17.6974 14.678 17.2721 13.6049 17.9644C12.5562 18.6402 12.5723 20.1485 13.4901 20.9044C13.7365 21.1071 13.7751 21.2911 13.6031 21.5476C13.4716 21.7444 13.33 21.9349 13.1931 22.1282C12.9562 22.4629 12.7193 22.7977 12.4307 23.2054C12.8586 23.1774 13.1633 23.2539 13.255 23.6418C13.3187 23.6207 13.4097 23.6196 13.4424 23.5757C13.7222 23.2042 13.9954 22.8274 14.262 22.4466C14.4953 22.113 14.9143 22.1101 15.1512 22.4442C15.4208 22.8245 15.7023 23.1966 15.9636 23.5828C16.0534 23.7154 16.0975 23.7311 16.1743 23.5857C16.3284 23.2936 16.5635 23.1248 16.942 23.1499L16.9414 23.1487Z" fill="#020202"/>
<path d="M3.21093 10.687C4.45781 10.6846 5.70468 10.68 6.95156 10.68C10.2768 10.6788 13.602 10.68 16.9272 10.68C17.0444 10.68 17.1789 10.6537 17.2759 10.7004C17.4711 10.7933 17.6485 10.9428 17.5806 11.1876C17.5199 11.409 17.389 11.5509 17.1033 11.5503C12.561 11.5422 8.0181 11.5445 3.47578 11.5451C3.3871 11.5451 3.29782 11.5498 3.20914 11.5527C3.16986 11.5486 3.12999 11.5445 3.09071 11.5404C2.81752 11.5112 2.66754 11.35 2.67826 11.093C2.68599 10.9002 2.77348 10.7203 3.02821 10.7249C3.08892 10.7121 3.15022 10.6992 3.21093 10.687Z" fill="#2A3547"/>
<path d="M17.3432 14.4028C17.1093 14.4109 16.8754 14.4267 16.6409 14.4267C12.3259 14.4285 8.01095 14.4285 3.69599 14.4267C3.51506 14.4267 3.33354 14.4185 3.15379 14.4034C2.92525 14.3841 2.65743 14.1417 2.6729 13.9798C2.69433 13.7509 2.9074 13.5896 3.19665 13.5885C7.78717 13.5779 12.3783 13.5674 16.9688 13.5628C17.1152 13.5628 17.2622 13.6182 17.4086 13.6475C17.4473 13.6691 17.486 13.6913 17.5247 13.7129C17.5235 13.731 17.5277 13.7473 17.5372 13.7631C17.5557 13.8017 17.5741 13.8396 17.5926 13.8782C17.5926 13.9571 17.5926 14.0359 17.5926 14.1148C17.5717 14.1533 17.5515 14.1919 17.5307 14.231C17.4896 14.2731 17.4491 14.3157 17.408 14.3578C17.386 14.3724 17.3646 14.3876 17.3426 14.4022L17.3432 14.4028Z" fill="#2A3547"/>
<path d="M17.3497 7.86374C17.4092 7.9058 17.4688 7.94845 17.5283 7.9905C17.5491 8.02906 17.5693 8.06761 17.5902 8.10617C17.5568 8.61204 17.3842 8.71544 16.6956 8.64184C16.5576 8.42862 16.3362 8.45841 16.1284 8.45841C12.1533 8.45724 8.1776 8.45724 4.20248 8.45783C4.1138 8.45783 4.015 8.43797 3.93823 8.46893C3.8061 8.52209 3.68825 8.60854 3.56386 8.68097C3.45554 8.68448 3.34782 8.69032 3.2395 8.69032C2.86871 8.69032 2.72289 8.55538 2.67409 8.17042C2.69016 8.14939 2.70623 8.12895 2.7223 8.10792C2.73718 7.89587 2.88597 7.82869 3.06809 7.81818C3.32401 7.80299 3.58053 7.79656 3.83705 7.79656C8.05916 7.7954 12.2819 7.79598 16.504 7.79481C16.7307 7.79481 16.9581 7.78371 17.1849 7.77787C17.2396 7.8065 17.2944 7.83512 17.3491 7.86374H17.3497Z" fill="#2A3547"/>
<path d="M9.85954 5.78474C7.7223 5.78241 5.58446 5.78007 3.44721 5.77715C3.31865 5.77715 3.1901 5.76488 3.06154 5.76955C2.77705 5.77948 2.69551 5.58671 2.67587 5.37116C2.65683 5.16203 2.76515 4.99964 2.98298 4.94239C3.08594 4.91552 3.19784 4.91377 3.30556 4.91318C5.42317 4.91143 7.54137 4.90617 9.65897 4.92195C9.84645 4.92311 10.0881 5.01366 10.2077 5.14626C10.3988 5.35889 10.2559 5.62877 9.92561 5.78708C9.90358 5.78649 9.88156 5.78533 9.85954 5.78474Z" fill="#2A3547"/>
<path d="M6.47542 17.3113C5.39757 17.3113 4.32032 17.3124 3.24247 17.3107C3.02226 17.3107 2.81217 17.2955 2.71337 17.0426C2.61874 16.8001 2.70682 16.5799 2.96096 16.5034C3.06154 16.473 3.16867 16.4485 3.27342 16.4485C5.40888 16.4456 7.54434 16.445 9.6798 16.4467C10.1577 16.4467 10.3666 16.6944 10.219 17.0706C10.1196 17.3235 9.88751 17.3078 9.67861 17.3084C8.61088 17.3142 7.54315 17.3107 6.47542 17.3107V17.3113Z" fill="#2A3547"/>
<path d="M3.56446 8.68098C3.68825 8.60854 3.80669 8.52267 3.93882 8.46893C4.01559 8.43797 4.11439 8.45783 4.20307 8.45783C8.17819 8.45783 12.1539 8.45725 16.129 8.45842C16.3362 8.45842 16.5581 8.42921 16.6962 8.64184C16.5885 8.64827 16.4808 8.65995 16.3725 8.65995C12.7146 8.66112 9.05666 8.65995 5.39817 8.6617C4.78693 8.6617 4.17569 8.67397 3.56446 8.68098Z" fill="#2A3547"/>
<path d="M3.21093 10.687C3.15022 10.6998 3.08892 10.7127 3.02821 10.7249C3.08892 10.7121 3.15022 10.6992 3.21093 10.687Z" fill="#CCCCCC"/>
<path d="M17.5307 14.231C17.5515 14.1925 17.5717 14.1539 17.5926 14.1148C17.5717 14.1533 17.5515 14.1919 17.5307 14.231Z" fill="#F9F9F9"/>
<path d="M17.4789 19.5363C17.4789 19.4972 17.4789 19.4586 17.4789 19.4195C17.5074 19.4388 17.5354 19.4586 17.564 19.4779C17.5354 19.4972 17.5074 19.517 17.4789 19.5363Z" fill="#FEFEFE"/>
<path d="M18.1794 23.4437C18.1651 23.4046 18.1508 23.3654 18.1365 23.3257C18.1508 23.3649 18.1651 23.404 18.1794 23.4437Z" fill="#F7F7F7"/>
<path d="M9.85954 5.78474C9.88156 5.78533 9.90358 5.78649 9.92561 5.78708C9.91727 5.80928 9.90894 5.83205 9.90061 5.85425C9.88692 5.83089 9.87323 5.80811 9.85954 5.78474Z" fill="#BFBFBF"/>
<path d="M13.4877 17.0204C13.5085 17.004 13.5293 16.9882 13.5502 16.9719L13.4877 17.0204Z" fill="#FCFCFC"/>
</svg>
