<svg width="20" height="20" viewBox="0 0 20 20" fill="none" xmlns="http://www.w3.org/2000/svg">
<path d="M7.88626 15.9448C7.96063 15.9484 8.00561 15.9524 8.0503 15.9524C9.22858 15.9527 10.4066 15.95 11.5849 15.9561C11.7324 15.957 11.7645 15.9087 11.7575 15.7728C11.7253 15.1585 11.8291 14.574 12.1605 14.0433C12.5446 13.4287 13.0854 13.0208 13.7786 12.8133C13.8123 12.8032 13.8459 12.7919 13.9013 12.7744C13.453 12.2802 13.2856 11.7146 13.4334 11.0728C13.531 10.6495 13.7664 10.3092 14.1168 10.0521C14.8238 9.53276 15.8056 9.60958 16.4314 10.2186C16.9912 10.7634 17.2721 11.845 16.4657 12.7652C17.9889 13.2702 18.6766 14.3414 18.5949 15.9414C18.6598 15.9457 18.7133 15.9518 18.7672 15.9521C19.0579 15.9533 19.3487 15.9521 19.6394 15.9539C19.8883 15.9555 19.9975 16.062 19.9987 16.305C20.0003 16.6569 20.0006 17.0089 19.9987 17.3608C19.9975 17.6075 19.8904 17.7137 19.6428 17.7153C19.3986 17.7168 19.1543 17.7156 18.8853 17.7156V17.9056C18.8853 18.4718 18.8853 19.038 18.8853 19.6042C18.8853 19.9069 18.7938 19.9999 18.4954 19.9999C12.8289 19.9999 7.16245 20.0002 1.49597 19.9999C1.2092 19.9999 1.11432 19.9035 1.11432 19.6109C1.11371 19.0395 1.11432 18.4684 1.11432 17.897C1.11432 17.8426 1.11432 17.7878 1.11432 17.7153C0.851427 17.7153 0.608118 17.7162 0.36481 17.7153C0.105587 17.714 0.000612107 17.6097 0.000306058 17.3535C-0.000306039 17.0067 -2.77068e-08 16.66 0.00122417 16.3129C0.00214231 16.0647 0.106505 15.957 0.352874 15.9536C0.581492 15.9506 0.810111 15.953 1.06076 15.953C1.06076 15.8309 1.06076 15.7256 1.06076 15.6204C1.05801 14.2236 1.79467 13.2182 3.1269 12.8001C3.14618 12.794 3.16485 12.7867 3.2028 12.7732C2.7679 12.2854 2.59039 11.7293 2.73393 11.0909C2.82942 10.6658 3.05926 10.3227 3.40693 10.0638C4.12308 9.53062 5.0853 9.59673 5.73259 10.2174C6.4261 10.8824 6.4414 11.7681 5.76381 12.7781C6.46007 12.9669 7.02045 13.3464 7.4278 13.9411C7.83943 14.5421 7.94287 15.2164 7.88626 15.9448ZM14.7693 19.3982V17.7253H5.23098V19.3982H14.7693ZM18.0024 15.9536C18.0024 15.7526 18.0097 15.5793 18.0012 15.4067C17.9418 14.2095 17.0059 13.31 15.8074 13.2984C15.374 13.2941 14.9401 13.2895 14.5067 13.2999C13.7887 13.317 13.2115 13.6188 12.7751 14.1899C12.4182 14.6566 12.3261 15.1922 12.3423 15.7639C12.3469 15.9224 12.3895 15.9567 12.5403 15.9564C14.2897 15.9515 16.0394 15.9536 17.7888 15.9539C17.8539 15.9539 17.9194 15.9536 18.0024 15.9536ZM7.30752 15.9438C7.30752 15.7767 7.30844 15.62 7.30752 15.4637C7.30048 14.293 6.33857 13.3167 5.16916 13.2993C4.71009 13.2926 4.25071 13.284 3.79225 13.3017C2.95673 13.3339 2.32964 13.7247 1.91311 14.4506C1.67837 14.8598 1.63858 15.3073 1.64379 15.7673C1.64532 15.912 1.68021 15.9561 1.82925 15.9555C3.59913 15.9506 5.36901 15.9527 7.13889 15.9524C7.18847 15.9524 7.23835 15.9472 7.30752 15.9438ZM0.592816 16.5541C0.592816 16.6955 0.602609 16.8231 0.590367 16.9486C0.575677 17.1004 0.636581 17.1316 0.779811 17.1313C6.93077 17.1279 13.0814 17.1286 19.2324 17.1283C19.2866 17.1283 19.3407 17.1234 19.3964 17.1209V16.5541H0.592816ZM18.2846 19.3982V17.7229H15.3814V19.3982H18.2846ZM4.61643 19.4007V17.726H1.71357V19.4007H4.61643ZM4.47412 12.7016C5.13427 12.7043 5.67812 12.1715 5.68301 11.5169C5.68822 10.8414 5.1511 10.2991 4.47688 10.2985C3.8201 10.2979 3.28176 10.831 3.27258 11.4912C3.26339 12.1492 3.80908 12.6988 4.47412 12.7016ZM15.1708 12.7016C15.8313 12.7034 16.3727 12.1715 16.3785 11.5153C16.3846 10.8485 15.8487 10.3019 15.1858 10.2985C14.515 10.2951 13.9757 10.8261 13.9726 11.4927C13.9696 12.1617 14.503 12.6997 15.1708 12.7016Z" fill="black"/>
<path d="M9.57186 4.51141C9.57186 5.63858 9.57186 6.76576 9.57186 7.89293C9.57186 8.31681 9.3766 8.62041 9.02618 8.74374C8.66963 8.86922 8.32441 8.75292 8.0557 8.41719C7.67008 7.93547 7.28231 7.45589 6.90098 6.97081C6.82814 6.87808 6.75438 6.8389 6.63349 6.83921C4.80761 6.84319 2.98142 6.84258 1.15553 6.84166C0.622394 6.84166 0.220858 6.57907 0.0644676 6.11632C0.022845 5.99329 0.00417574 5.8568 0.00386969 5.72642C-0.000108936 4.18608 0.000197187 2.64575 0.00203348 1.10541C0.00264557 0.469135 0.466921 0.00210628 1.10381 0.00149418C3.56229 -0.000648151 6.02078 -0.000342103 8.47896 0.00149418C9.10422 0.00210628 9.57033 0.472195 9.57125 1.09898C9.57309 2.23625 9.57186 3.37414 9.57186 4.51141ZM7.55347 6.84196C7.63029 6.93898 7.67956 7.00203 7.72945 7.06446C8.0003 7.40295 8.26963 7.74266 8.54262 8.07931C8.66412 8.22928 8.8401 8.24489 8.92794 8.10808C8.96833 8.04504 8.98211 7.95506 8.98211 7.87732C8.98486 5.63828 8.98456 3.39893 8.98394 1.15988C8.98394 0.77457 8.7994 0.593696 8.40765 0.59339C5.99507 0.593084 3.58249 0.593084 1.16991 0.59339C0.768379 0.59339 0.593013 0.769979 0.593013 1.17151C0.593013 2.66074 0.593013 4.15028 0.593013 5.6395C0.593013 6.08266 0.759197 6.25068 1.20144 6.25099C2.30811 6.2516 3.41509 6.25099 4.52176 6.25099C5.64893 6.25099 6.77611 6.25068 7.90329 6.2516C8.12364 6.2516 8.25555 6.36483 8.25494 6.54571C8.25432 6.72628 8.12211 6.83798 7.90114 6.84166C7.79984 6.84349 7.69915 6.84196 7.55347 6.84196Z" fill="black"/>
<path d="M15.2197 0.0012207C16.4285 0.0012207 17.6371 0.0012207 18.846 0.0012207C19.5515 0.0012207 19.9995 0.452334 19.9992 1.16145C19.9992 2.66598 19.9992 4.17081 19.9992 5.67534C19.9992 6.3918 19.5505 6.842 18.8347 6.842C17.0088 6.84261 15.1829 6.84322 13.3567 6.84016C13.2496 6.84016 13.1783 6.87015 13.1116 6.95523C12.7171 7.45593 12.3168 7.95203 11.9198 8.45058C11.6799 8.75204 11.3282 8.86344 10.9784 8.745C10.6421 8.63115 10.4297 8.32602 10.4294 7.94346C10.4282 5.65851 10.4275 3.37356 10.4294 1.08861C10.43 0.47131 10.8998 0.00366918 11.5165 0.00275103C12.7508 0.000608701 13.9854 0.0018328 15.2197 0.0012207ZM12.4511 6.83924C12.2773 6.83924 12.15 6.8472 12.0242 6.8374C11.8525 6.82363 11.738 6.69142 11.7442 6.53258C11.7503 6.37894 11.8666 6.2651 12.0328 6.25285C12.0885 6.24888 12.1448 6.25132 12.2011 6.25132C14.3933 6.25132 16.5859 6.25132 18.7781 6.25132C19.2439 6.25132 19.407 6.09004 19.407 5.62974C19.407 4.13072 19.407 2.63201 19.407 1.13298C19.407 0.786539 19.217 0.593423 18.8684 0.593117C16.4365 0.592504 14.0043 0.592811 11.5725 0.593729C11.2031 0.593729 11.0176 0.779499 11.0164 1.14829C11.0145 1.70897 11.0158 2.26995 11.0158 2.83063C11.0158 4.51818 11.0161 6.20572 11.0152 7.89327C11.0152 8.02548 11.0403 8.14086 11.1813 8.18677C11.316 8.23084 11.4017 8.15402 11.4788 8.05517C11.6325 7.85838 11.7898 7.66434 11.9459 7.46909C12.1041 7.27138 12.2626 7.07459 12.4511 6.83924Z" fill="black"/>
<path d="M9.99988 12.2449C9.55611 12.2449 9.11234 12.2467 8.66857 12.2446C7.94232 12.2406 7.38745 11.7182 7.36358 11.0189C7.33971 10.3232 7.86122 9.73468 8.58471 9.71356C9.52734 9.68571 10.4721 9.68632 11.415 9.71234C12.1358 9.73223 12.6561 10.3192 12.6356 11.0192C12.6151 11.716 12.0565 12.2424 11.3312 12.2455C10.8874 12.2473 10.4437 12.2449 9.99988 12.2449ZM10.0045 10.2981C9.56101 10.2981 9.11754 10.2966 8.67377 10.2984C8.25173 10.3003 7.94752 10.5904 7.95119 10.9834C7.95456 11.3674 8.2603 11.6551 8.67194 11.656C9.55887 11.6576 10.4461 11.6576 11.333 11.656C11.7425 11.6551 12.0477 11.3635 12.0486 10.9781C12.0495 10.5934 11.7444 10.3012 11.3349 10.299C10.8914 10.2969 10.4482 10.2984 10.0045 10.2981Z" fill="black"/>
<path d="M4.78414 3.71811C3.85161 3.71811 2.91908 3.71811 1.98655 3.71811C1.94064 3.71811 1.89443 3.72056 1.84913 3.71566C1.67591 3.69699 1.55931 3.57274 1.56359 3.4142C1.56757 3.25445 1.68846 3.13723 1.86199 3.12591C1.89749 3.12346 1.9333 3.1253 1.96911 3.1253C3.84426 3.1253 5.71973 3.1253 7.59489 3.1253C7.8685 3.1253 8.0102 3.22598 8.0102 3.41971C8.0102 3.61344 7.86574 3.71811 7.59703 3.71811C6.6593 3.71811 5.72187 3.71811 4.78414 3.71811Z" fill="black"/>
<path d="M4.21602 4.68613C4.94533 4.68613 5.67434 4.68613 6.40365 4.68613C6.45966 4.68613 6.51628 4.6846 6.57167 4.69133C6.72531 4.71061 6.83671 4.83273 6.83885 4.97841C6.841 5.12408 6.73265 5.24834 6.57871 5.27129C6.53372 5.27803 6.4872 5.27711 6.4413 5.27711C4.94717 5.27711 3.45304 5.27711 1.95922 5.27711C1.93871 5.27711 1.91851 5.27741 1.89801 5.27711C1.69295 5.27099 1.56166 5.15347 1.5635 4.97779C1.56533 4.80488 1.69908 4.68705 1.90596 4.68644C2.67598 4.6846 3.446 4.68613 4.21602 4.68613Z" fill="black"/>
<path d="M5.57792 2.15392C4.89451 2.15392 4.21111 2.15392 3.52801 2.15362C3.4772 2.15362 3.42548 2.15362 3.37559 2.14535C3.22869 2.12087 3.12769 2.00304 3.12647 1.86042C3.12555 1.71352 3.23481 1.58712 3.38508 1.56692C3.43527 1.56019 3.487 1.56203 3.5378 1.56203C4.89421 1.56203 6.25061 1.56203 7.60733 1.56203C7.64313 1.56203 7.67894 1.5605 7.71444 1.56356C7.88797 1.57825 8.00886 1.69853 8.00947 1.85553C8.01039 2.02018 7.88644 2.14811 7.70434 2.15239C7.4393 2.15851 7.17396 2.15423 6.90892 2.15423C6.46515 2.15423 6.02169 2.15392 5.57792 2.15392Z" fill="black"/>
<path d="M2.0574 2.14869C1.98119 2.14869 1.90407 2.15604 1.82908 2.14716C1.67147 2.12849 1.56374 2.00883 1.56252 1.86254C1.56099 1.70859 1.67086 1.57914 1.83429 1.56689C1.98058 1.55618 2.12932 1.55679 2.27561 1.56904C2.43506 1.5825 2.53728 1.70278 2.53942 1.85305C2.54156 2.01097 2.43659 2.13002 2.27071 2.14869C2.20063 2.15665 2.12871 2.14991 2.0577 2.14991L2.0574 2.14869Z" fill="black"/>
<path d="M15.2027 3.12529C16.1147 3.12529 17.0267 3.12529 17.9388 3.12529C18.0202 3.12529 18.1025 3.12193 18.183 3.13203C18.3277 3.15008 18.4336 3.2722 18.4373 3.41359C18.441 3.54886 18.3492 3.67006 18.2111 3.7025C18.1573 3.71505 18.1003 3.71811 18.0446 3.71811C16.1594 3.71903 14.2741 3.71903 12.3889 3.71811C12.3234 3.71811 12.2548 3.71505 12.193 3.69577C12.055 3.65231 11.9846 3.54703 11.9928 3.40563C12.0011 3.26516 12.0801 3.16692 12.2224 3.13723C12.2863 3.12407 12.354 3.12652 12.4201 3.12621C13.3474 3.1256 14.2753 3.1256 15.2027 3.12529Z" fill="black"/>
<path d="M15.7999 5.27778C15.04 5.27778 14.28 5.2787 13.5204 5.27717C13.2508 5.27656 13.0953 5.08344 13.1881 4.86768C13.2428 4.74037 13.3484 4.68773 13.4813 4.68589C13.6239 4.68375 13.7668 4.68589 13.9097 4.68589C15.2814 4.68589 16.6535 4.68589 18.0252 4.68589C18.0457 4.68589 18.0659 4.68528 18.0864 4.68589C18.3031 4.69109 18.4396 4.808 18.4374 4.98612C18.435 5.16455 18.3 5.27717 18.0796 5.27748C17.3197 5.2787 16.5595 5.27778 15.7999 5.27778Z" fill="black"/>
<path d="M14.43 1.56211C15.1134 1.56211 15.7968 1.56119 16.4802 1.56333C16.5555 1.56333 16.636 1.56884 16.7043 1.59608C16.8255 1.64474 16.8812 1.75033 16.8714 1.87856C16.8616 2.00618 16.7936 2.10106 16.6657 2.13503C16.6027 2.15155 16.5347 2.1537 16.4689 2.1537C15.1125 2.15461 13.7558 2.15461 12.3994 2.15461C12.374 2.15461 12.3483 2.15523 12.3229 2.1537C12.1132 2.14207 11.9868 2.02699 11.9908 1.85255C11.9948 1.67871 12.1282 1.56241 12.3342 1.5618C13.0329 1.56058 13.7316 1.56211 14.43 1.56211Z" fill="black"/>
<path d="M17.9436 2.14813C17.8673 2.14813 17.7902 2.15639 17.7155 2.14629C17.5628 2.12579 17.4649 2.01439 17.4606 1.86993C17.456 1.71599 17.5497 1.58898 17.7076 1.57307C17.8634 1.55746 18.0228 1.55746 18.1789 1.57062C18.3335 1.58378 18.4387 1.71599 18.4369 1.86228C18.4351 2.00337 18.3359 2.12334 18.1869 2.14629C18.1076 2.15854 18.0247 2.14844 17.9436 2.14813Z" fill="black"/>
</svg>
