<svg width="20" height="20" viewBox="0 0 20 20" fill="none" xmlns="http://www.w3.org/2000/svg">
<path d="M14.6 0C14.843 0.0495 15.0885 0.089 15.329 0.1495C16.547 0.4575 17.3205 1.357 17.4355 2.605C17.4665 2.944 17.4835 3.286 17.4835 3.6265C17.487 7.009 17.4855 10.391 17.4855 13.7735V14.122H15.8535V13.7835C15.8535 10.318 15.8545 6.852 15.8505 3.3865C15.8505 3.172 15.8325 2.9515 15.784 2.7435C15.6135 2.015 15.0895 1.652 14.2125 1.648C13.138 1.643 12.063 1.647 10.9885 1.647C8.556 1.647 6.1235 1.647 3.6905 1.647C3.5955 1.647 3.5 1.647 3.405 1.647C3.396 1.666 3.3875 1.685 3.3785 1.704C3.723 1.982 3.964 2.3315 4.031 2.76C4.0975 3.1855 4.1405 3.619 4.1415 4.049C4.1495 8.3225 4.144 12.5965 4.152 16.87C4.152 17.13 4.198 17.4045 4.2895 17.647C4.4715 18.1305 4.931 18.306 5.4115 18.1155C5.784 17.968 6.0675 17.7015 6.2515 17.362C6.4635 16.97 6.6465 16.5565 6.786 16.1335C6.8615 15.904 6.9535 15.8485 7.1785 15.849C11.3355 15.8555 15.4925 15.854 19.65 15.8535C19.7665 15.8535 19.883 15.851 20 15.85V16C19.9455 16.2675 19.9055 16.5385 19.8345 16.8015C19.4395 18.273 18.6145 19.3685 17.121 19.871C16.997 19.913 16.8735 19.957 16.7495 20H4.7C4.655 19.981 4.611 19.954 4.564 19.945C3.3255 19.7005 2.5145 18.715 2.5145 17.4515C2.5145 13.1285 2.5145 8.8055 2.514 4.4825C2.514 4.3785 2.504 4.2745 2.4975 4.1505H0C0 4.0505 0 3.9505 0 3.8505C0.0375 3.6645 0.0675 3.4765 0.1135 3.2925C0.514 1.681 1.443 0.5655 3.0945 0.1375C3.326 0.0775 3.5645 0.045 3.8 0C7.4 0 11 0 14.6 0Z" fill="#2A3547"/>
<path d="M9.9885 8.3485C9.8495 8.2805 9.712 8.2375 9.604 8.156C9.395 7.998 9.175 7.9245 8.9095 7.935C8.507 7.9505 8.371 7.8505 8.2535 7.47C8.178 7.225 8.0345 7.0535 7.8225 6.9145C7.499 6.7025 7.4435 6.5365 7.582 6.1735C7.67 5.9415 7.672 5.73 7.5845 5.497C7.445 5.1245 7.4935 4.9685 7.822 4.7565C8.053 4.607 8.191 4.4145 8.268 4.153C8.362 3.834 8.5005 3.7335 8.835 3.7405C9.1395 3.7465 9.4015 3.6725 9.6455 3.4825C9.886 3.2955 10.116 3.295 10.3545 3.482C10.598 3.673 10.861 3.746 11.165 3.7405C11.4985 3.734 11.6395 3.836 11.7325 4.153C11.8095 4.414 11.9475 4.6075 12.1785 4.7565C12.5005 4.964 12.557 5.1275 12.424 5.4735C12.328 5.723 12.3305 5.949 12.4265 6.197C12.5575 6.5365 12.4955 6.711 12.1785 6.914C11.9555 7.0565 11.817 7.2415 11.7405 7.4935C11.6345 7.8415 11.4855 7.952 11.117 7.935C10.834 7.922 10.599 7.999 10.3765 8.17C10.27 8.2515 10.128 8.286 9.9885 8.3485ZM8.8005 5.9C9.108 6.2405 9.3945 6.5575 9.614 6.8005C10.1695 6.2895 10.7095 5.793 11.247 5.299C11.1115 5.1535 10.9995 5.033 10.8755 4.9C10.465 5.299 10.07 5.683 9.6715 6.0705C9.49 5.9045 9.3145 5.744 9.153 5.596C9.0025 5.726 8.8725 5.8385 8.8005 5.9Z" fill="#2A3547"/>
<path d="M10.017 9.186C11.0165 9.186 12.0165 9.1915 13.016 9.182C13.24 9.18 13.3255 9.2445 13.3185 9.4785C13.299 10.105 13.3715 9.982 12.82 9.9835C10.871 9.9895 8.9215 9.981 6.9725 9.9915C6.732 9.993 6.6765 9.9145 6.683 9.6945C6.7 9.117 6.629 9.1895 7.1935 9.187C8.135 9.1835 9.0755 9.186 10.017 9.186Z" fill="#2A3547"/>
<path d="M10.013 12.5145C11.0295 12.5145 12.0455 12.52 13.062 12.51C13.263 12.508 13.321 12.5725 13.317 12.7645C13.303 13.4025 13.38 13.3115 12.774 13.313C10.8665 13.317 8.959 13.3145 7.0515 13.3145C6.688 13.3145 6.6855 13.3135 6.6875 12.964C6.69 12.4145 6.6505 12.52 7.14 12.517C8.098 12.511 9.056 12.5155 10.014 12.5155L10.013 12.5145Z" fill="#2A3547"/>
<path d="M7.5255 11.621V10.8745H12.4695V11.621H7.5255Z" fill="#2A3547"/>
</svg>
