<svg width="20" height="18" viewBox="0 0 20 18" fill="none" xmlns="http://www.w3.org/2000/svg">
<path fill-rule="evenodd" clip-rule="evenodd" d="M19.1452 14.6588C19.6133 14.568 19.868 14.2554 20 13.8202L19.9995 13.8207V0.852185C19.7072 0.158643 19.4635 0 18.6896 0H1.17208C0.419569 0 0 0.421135 0 1.17312V13.5155C0 14.2586 0.419048 14.6797 1.15799 14.6797H7.30959H7.53816V15.9598C7.43141 15.9598 7.3262 15.9591 7.22205 15.9584H7.22194H7.22191H7.22189H7.22186H7.22184H7.22181H7.22179H7.22176H7.22174H7.22171C6.99454 15.9568 6.77242 15.9553 6.55029 15.9614C6.05819 15.975 5.69498 16.2108 5.47162 16.6455C5.29628 16.9868 5.49511 17.349 5.8745 17.4001C5.93133 17.4081 5.98952 17.4076 6.04743 17.4071L6.08898 17.4069H13.9006L13.9429 17.4071C13.9807 17.4075 14.0186 17.4078 14.0566 17.4059C14.5007 17.3819 14.7236 16.9884 14.5044 16.6012C14.2716 16.1894 13.9142 15.9692 13.4377 15.9603C13.2159 15.956 12.994 15.9572 12.7697 15.9583H12.7696H12.7696H12.7696H12.7696H12.7695H12.7695H12.7695H12.7695H12.7694H12.7694H12.7693H12.7692H12.769H12.7689H12.7688H12.7687H12.7685H12.7684H12.7683C12.6659 15.9588 12.5629 15.9593 12.4592 15.9593V14.6797H12.7024C14.7465 14.6797 16.7906 14.6797 18.8347 14.6787C18.938 14.6787 19.044 14.6787 19.1452 14.6588ZM19.57 11.3498C19.5713 11.3236 19.5729 11.2996 19.5743 11.2769L19.5743 11.2768C19.577 11.2353 19.5794 11.1984 19.5794 11.1614L19.5796 7.81579V7.80207C19.5799 5.57625 19.5801 3.35042 19.5794 1.12459C19.5794 0.656491 19.3383 0.420091 18.866 0.420091H1.13607C0.658578 0.420091 0.421135 0.659622 0.421135 1.14234C0.420787 3.36404 0.420903 5.58574 0.421019 7.80744L0.421135 11.14C0.421135 11.1853 0.424122 11.2307 0.427199 11.2774C0.428759 11.3011 0.430343 11.3252 0.431572 11.3498H19.57ZM0.426875 11.7892H19.5731C19.5731 11.9797 19.574 12.1691 19.5749 12.3577V12.3579V12.358V12.3581V12.3583V12.3584V12.3585V12.3586V12.3588V12.3589V12.359V12.3591V12.3591V12.3592V12.3592V12.3593V12.3593V12.3594V12.3594V12.3595V12.3595C19.577 12.8199 19.5792 13.2757 19.5684 13.731C19.5622 13.9992 19.3122 14.222 19.0424 14.2518C18.9729 14.2593 18.9025 14.2592 18.8321 14.2591L18.8086 14.2591C16.4601 14.2593 14.1117 14.2594 11.7633 14.2594H11.7633H11.7633H11.7633H11.7633H11.7633H11.7633H11.7632H11.7632H11.7632H11.7632C8.23948 14.2595 4.71579 14.2595 1.19191 14.2601L1.16084 14.2602C0.97271 14.2607 0.780112 14.2611 0.646575 14.1088C0.552642 14.0013 0.440965 13.8604 0.436791 13.731C0.420955 13.2559 0.423129 12.78 0.425328 12.2985L0.425328 12.2985C0.4261 12.1295 0.426875 11.9598 0.426875 11.7892ZM7.98382 15.9431V14.699H12.0162V15.9431H7.98382ZM10.7727 16.9859L9.97991 16.9858V16.9853L9.19494 16.9853H9.1927C8.14682 16.9855 7.10094 16.9857 6.05506 16.9832C6.00574 16.9832 5.95642 16.9678 5.90711 16.9523C5.88441 16.9452 5.86171 16.9381 5.83901 16.9326C5.84743 16.9088 5.85428 16.8839 5.86113 16.8589C5.87595 16.8051 5.89078 16.7511 5.92146 16.7087C6.10411 16.4551 6.36608 16.3679 6.67032 16.3679C7.74429 16.3695 8.81827 16.3693 9.89224 16.3691L10.9662 16.3689L11.7604 16.3692H11.7637H11.7638H11.7638H11.7639H11.7639H11.764H11.764H11.7641H11.7641H11.7642C12.2923 16.3694 12.8202 16.3696 13.3485 16.3689C13.6459 16.3684 13.9001 16.4624 14.0775 16.7092C14.1082 16.7517 14.123 16.8056 14.1378 16.8595C14.1447 16.8844 14.1515 16.9093 14.1599 16.9331C14.1372 16.9387 14.1146 16.9458 14.0919 16.9529C14.0425 16.9683 13.9932 16.9837 13.9439 16.9837C12.8876 16.9862 11.8313 16.986 10.775 16.9859H10.7727ZM4.44931 6.38853C5.73881 6.38227 6.79661 5.32186 6.79765 4.03497H6.79713C6.79817 2.7246 5.73985 1.6715 4.4227 1.6715C3.14312 1.67202 2.07802 2.74548 2.08115 4.03132C2.08428 5.32447 3.15982 6.39479 4.44931 6.38853ZM6.1349 4.24006H6.36086V4.24058C6.26536 5.2488 5.37821 6.00131 4.35903 5.96739C3.35916 5.93399 2.52681 5.09172 2.50176 4.0882C2.47671 3.07998 3.23966 2.19336 4.23066 2.10986V2.31756C4.23066 2.49533 4.23048 2.67311 4.23031 2.85089V2.85126C4.22996 3.20669 4.22961 3.56212 4.23066 3.91756C4.23118 4.17692 4.2938 4.23954 4.55421 4.24006C4.90557 4.24076 5.2567 4.24053 5.6079 4.24029L6.1349 4.24006ZM6.36138 3.81317C6.36138 3.81317 6.36138 3.81318 6.36138 3.81319H4.66275V2.12186C4.66293 2.12186 4.6631 2.12185 4.66327 2.12185V3.81317H6.36138ZM11.4844 7.08781L11.4843 6.25494V6.25152C11.4842 5.69741 11.4841 5.1433 11.4844 4.58918C11.4844 4.22597 11.6295 4.08038 11.9917 4.07725C12.1217 4.0762 12.2518 4.07655 12.3819 4.0769H12.382C12.4471 4.07707 12.5121 4.07725 12.5772 4.07725C13.075 4.07725 13.1903 4.19101 13.1903 4.68207V8.02036L13.1906 8.48907C13.191 8.85345 13.1913 9.21773 13.1898 9.58227C13.1883 9.95435 13.0369 10.1057 12.6706 10.1067C12.4363 10.1078 12.202 10.1088 11.9676 10.1067C11.6488 10.1036 11.486 9.94391 11.4849 9.62663C11.4835 9.0345 11.4838 8.44237 11.4841 7.85024L11.4844 7.08886V7.08781ZM11.9191 4.49943V9.67046H12.7562V4.49943H11.9191ZM16.6335 5.52119V7.5105H16.633L16.6328 8.09039C16.6325 8.60577 16.6322 9.12114 16.634 9.63652C16.6356 9.94703 16.7937 10.1025 17.1048 10.1057C17.3646 10.1088 17.625 10.1104 17.8849 10.1051C18.1594 10.0994 18.3264 9.94024 18.3269 9.66783C18.3306 8.23744 18.3306 6.80704 18.3269 5.37664C18.3264 5.11154 18.162 4.95655 17.8969 4.95133C17.7387 4.94806 17.5804 4.94884 17.4221 4.94961C17.3528 4.94995 17.2836 4.95029 17.2143 4.95029C16.7515 4.95029 16.6335 5.06562 16.6335 5.52119ZM17.0583 9.67097V5.37821H17.9079V9.67097H17.0583ZM17.2446 3.03458C16.4855 3.57089 15.7265 4.10721 14.9486 4.65656L14.9257 4.63015L14.9255 4.62993L14.9255 4.62992C14.8686 4.56415 14.8199 4.50798 14.7721 4.45141L14.148 3.7087C13.6193 3.0794 13.0905 2.45007 12.561 1.82127C12.3945 1.62349 12.3084 1.61827 12.1294 1.791C11.4802 2.41739 10.8316 3.04443 10.1831 3.67135L10.1829 3.6716L10.1826 3.67185L10.1824 3.6721L10.1821 3.67235L10.1819 3.6726L10.1816 3.67284L10.181 3.67344L9.68611 4.15187C9.67775 4.15982 9.66812 4.16788 9.65834 4.17606C9.62964 4.20006 9.59973 4.22507 9.59739 4.25154L9.59655 4.26173C9.58978 4.34355 9.58098 4.44971 9.62505 4.49629C9.67045 4.54482 9.78578 4.5443 9.86719 4.5349C9.90293 4.53058 9.93631 4.49405 9.96843 4.45888C9.97899 4.44732 9.98941 4.43591 9.99974 4.42584C10.4131 4.0273 10.8262 3.62843 11.2392 3.2296L11.2396 3.22917L11.2401 3.22874L11.2414 3.22746C11.5534 2.92616 11.8654 2.62489 12.1774 2.32382C12.2064 2.29584 12.2362 2.26912 12.2671 2.24141L12.2671 2.2414C12.2852 2.22517 12.3036 2.20861 12.3225 2.19126L12.3629 2.23676L12.363 2.23683C12.3885 2.26541 12.4114 2.29113 12.4337 2.31755L13.5382 3.63142L14.6448 4.94769C14.8556 5.1987 14.8952 5.20601 15.1556 5.02179C15.9294 4.47505 16.7032 3.92779 17.477 3.38053L17.4821 3.37691C17.4953 3.36743 17.5104 3.3584 17.5256 3.3493C17.5647 3.32585 17.6045 3.30198 17.6162 3.26889C17.6449 3.18748 17.6783 3.06693 17.6397 3.01266C17.5995 2.9563 17.4768 2.94378 17.3897 2.94169C17.3559 2.94095 17.3215 2.97055 17.2874 2.99996L17.2873 2.99997C17.273 3.01229 17.2588 3.02457 17.2446 3.03458ZM8.90988 7.68369L8.91011 8.15865L8.90907 8.1597C8.90924 8.32428 8.90901 8.48891 8.90878 8.65359V8.65365V8.65372V8.65378V8.65385V8.65392V8.65398V8.65421C8.90832 8.98381 8.90785 9.31357 8.91063 9.64332C8.91324 9.93713 9.08076 10.102 9.37247 10.1062C9.62609 10.1093 9.88024 10.1083 10.1339 10.1062C10.4496 10.1031 10.6155 9.94182 10.6166 9.62402C10.6197 8.64763 10.6202 7.67176 10.6166 6.69538C10.6155 6.38488 10.4574 6.22989 10.1443 6.22206C9.90372 6.21632 9.66262 6.21841 9.42205 6.22101C9.06145 6.22519 8.91116 6.37548 8.91011 6.73347C8.90942 7.05008 8.90965 7.36693 8.90988 7.68369ZM9.34482 9.67046V6.64058H10.1803V9.67046H9.34482ZM14.0598 8.16752C14.0598 8.00488 14.0596 7.84223 14.0594 7.67959C14.0591 7.3543 14.0587 7.02901 14.0598 6.70372C14.0608 6.388 14.2085 6.2304 14.5185 6.22257C14.7783 6.21579 15.0393 6.21579 15.2992 6.22257C15.6039 6.23092 15.7553 6.38017 15.7568 6.68598C15.761 7.66863 15.761 8.65075 15.7568 9.6334C15.7553 9.95591 15.595 10.1041 15.2684 10.1062L15.1735 10.1068H15.1734C14.9513 10.1083 14.729 10.1098 14.507 10.1057C14.2231 10.1005 14.0618 9.93764 14.0598 9.65167C14.0572 9.30254 14.0577 8.95366 14.0583 8.60468V8.60463V8.60457V8.60452V8.60446V8.60441C14.0585 8.45898 14.0587 8.31353 14.0587 8.16804L14.0598 8.16752ZM15.3362 9.67672V6.64684H14.4903V9.67672H15.3362ZM2.42348 10.1062H4.43314V10.1067H6.44279C6.45839 10.1067 6.47537 10.1085 6.49243 10.1102C6.53185 10.1143 6.57165 10.1185 6.59569 10.101L6.60236 10.0962C6.67763 10.0417 6.78098 9.96695 6.78199 9.90006C6.7825 9.8323 6.68055 9.75409 6.60676 9.69749L6.60143 9.69341C6.5776 9.67479 6.53651 9.67849 6.49597 9.68214H6.49595H6.49594H6.49593L6.49591 9.68214C6.47964 9.6836 6.46347 9.68506 6.44853 9.68506C5.10893 9.68454 3.76882 9.68401 2.42922 9.68506C2.41514 9.68506 2.40026 9.68443 2.38513 9.68379L2.38508 9.68379C2.33127 9.68152 2.27441 9.67912 2.23979 9.70437C2.17456 9.75238 2.09419 9.83692 2.09628 9.90319C2.09889 9.96999 2.18499 10.0467 2.25179 10.0947C2.28072 10.1156 2.3277 10.1121 2.37369 10.1087L2.37372 10.1087C2.39077 10.1075 2.40768 10.1062 2.42348 10.1062ZM4.41227 7.64985L3.90505 7.64965C3.39783 7.64936 2.89068 7.64906 2.38383 7.65141C2.23197 7.65193 2.0942 7.62689 2.09002 7.44841C2.08585 7.26994 2.22205 7.23184 2.37391 7.23237C3.29274 7.23271 4.2118 7.2326 5.13078 7.23248L6.50907 7.23237C6.65884 7.23237 6.79713 7.26524 6.79244 7.44789C6.78774 7.62897 6.64945 7.65193 6.49915 7.65141C5.99333 7.64952 5.48751 7.64983 4.98149 7.65014H4.98141H4.98132H4.98124L4.41174 7.65037L4.41227 7.64985ZM2.42609 8.87566C3.10189 8.87618 3.77821 8.87618 4.45401 8.87618L4.45453 8.87671H6.42401L6.4464 8.87673H6.44646C6.49115 8.87679 6.53579 8.87685 6.58004 8.87462C6.70789 8.86784 6.79452 8.80678 6.79452 8.67266C6.79504 8.54063 6.71468 8.47331 6.58474 8.46601C6.55256 8.46427 6.52003 8.46434 6.48743 8.46441H6.48742H6.48742L6.46784 8.46444H2.41148C2.39583 8.46444 2.37895 8.46321 2.36191 8.46196L2.36189 8.46196H2.36187C2.31526 8.45855 2.26744 8.45505 2.24031 8.47645C2.17613 8.52759 2.10098 8.60587 2.09628 8.67736C2.09211 8.73633 2.17299 8.81722 2.23562 8.85844C2.27171 8.8821 2.32661 8.87957 2.37946 8.87713C2.39538 8.87639 2.41111 8.87566 2.42609 8.87566ZM10.7022 13.0187C10.7022 13.4085 10.3812 13.7216 9.9893 13.7164C9.60522 13.7112 9.29733 13.3996 9.29785 13.0171C9.29785 12.6283 9.6214 12.311 10.0107 12.3178C10.3943 12.3241 10.7027 12.6372 10.7027 13.0187H10.7022ZM9.9987 13.3041C10.1506 13.3046 10.2795 13.1736 10.28 13.0187C10.28 12.8631 10.1532 12.7327 10.0003 12.7322C9.84736 12.7316 9.71951 12.8616 9.71898 13.0171C9.71898 13.1726 9.84579 13.3036 9.99818 13.3041H9.9987Z" fill="black"/>
</svg>
