<svg width="20" height="19" viewBox="0 0 20 19" fill="none" xmlns="http://www.w3.org/2000/svg">
<path d="M11.9502 6.30089C12.4425 5.95994 13.0057 5.80659 13.5815 5.70594C14.0121 5.63058 14.449 5.57947 14.8849 5.54838C15.3547 5.51465 15.8271 5.49779 16.2974 5.51044C16.7104 5.5215 17.1233 5.5742 17.5341 5.6269C17.7679 5.65693 17.8499 5.92727 17.6954 6.10802C17.6562 6.13015 17.6171 6.15281 17.5779 6.17494C17.414 6.31248 17.2297 6.21341 17.0585 6.20919C16.6023 6.19813 16.1466 6.14227 15.6909 6.14121C15.2743 6.14016 14.8578 6.19707 14.4407 6.21236C13.8279 6.23449 13.2448 6.38573 12.6805 6.61443C12.538 6.67187 12.4117 6.76936 12.276 6.84471C12.1282 6.92692 12.1559 7.02652 12.2499 7.12664C12.4868 7.37906 12.8074 7.46864 13.1221 7.5519C13.5361 7.66098 13.9558 7.75162 14.377 7.82645C14.6083 7.86755 14.8479 7.86123 15.0838 7.86913C15.1297 7.87072 15.1757 7.83646 15.2227 7.82487C15.2623 7.81486 15.3208 7.79325 15.3422 7.81117C15.574 8.00983 15.8276 7.89443 16.0735 7.86755C16.1043 7.86439 16.1294 7.8059 16.1591 7.77059C16.3674 7.88231 16.5856 7.95398 16.8059 7.76848C16.8179 7.75847 16.8424 7.75584 16.8586 7.75953C17.3185 7.87915 17.7481 7.73739 18.1787 7.60512C18.4356 7.52608 18.6913 7.44387 18.945 7.35692C19.003 7.3369 19.0531 7.29316 19.1053 7.25733C19.4258 7.03706 19.4326 6.94168 19.0912 6.74564C18.872 6.6197 18.6245 6.54171 18.3855 6.45318C18.1793 6.37677 18.0472 6.20234 18.0937 6.04373C18.1511 5.84875 18.3312 5.78551 18.5775 5.85718C19.0369 5.9905 19.4827 6.15123 19.811 6.52379C19.8919 6.61548 19.9379 6.73774 20 6.84629V14.5774C19.6899 15.166 19.1361 15.3868 18.5499 15.5639C17.9527 15.7446 17.3378 15.811 16.7218 15.8885C16.3716 15.9322 16.0271 15.8985 15.6799 15.9164C15.4857 15.9264 15.3495 15.7842 15.35 15.6013C15.35 15.409 15.4748 15.2957 15.6831 15.2872C15.9007 15.2783 16.1362 15.3099 16.3314 15.2366C16.5762 15.1449 16.8074 15.3215 17.0371 15.2113C17.1191 15.1724 17.2083 15.1497 17.2945 15.1197C17.3174 15.1117 17.3415 15.0965 17.3639 15.098C18.043 15.1481 18.6418 14.9078 19.2144 14.5764C19.2452 14.5584 19.2614 14.5063 19.2739 14.4662C19.3183 14.3255 19.3574 14.1838 19.4117 13.9988C19.133 14.1031 18.9116 14.189 18.6877 14.2691C18.1845 14.4488 17.6646 14.5442 17.1321 14.5758C16.6957 14.6016 16.2599 14.6348 15.8235 14.6543C15.5865 14.6649 15.4659 14.5453 15.4669 14.3318C15.468 14.1321 15.5901 14.0294 15.8209 14.0251C16.4859 14.0125 17.1504 13.984 17.7998 13.826C18.1646 13.7374 18.5253 13.6294 18.8819 13.5108C19.0155 13.4666 19.1408 13.3801 19.2541 13.2921C19.3893 13.1873 19.3971 13.1024 19.3595 12.7736C19.1267 12.8627 18.896 12.9601 18.659 13.0381C18.4283 13.1146 18.1949 13.1941 17.9564 13.2315C17.5106 13.3011 17.0611 13.3506 16.6112 13.3902C16.2771 13.4197 15.9409 13.4249 15.6053 13.4323C15.385 13.4371 15.2681 13.3153 15.2712 13.1066C15.2743 12.9053 15.386 12.8026 15.6037 12.8026C16.5073 12.8042 17.4036 12.7383 18.2764 12.4869C18.5337 12.4126 18.789 12.3199 19.0322 12.2071C19.3736 12.049 19.4159 11.9399 19.3574 11.5658C18.9915 11.6881 18.6292 11.8403 18.2523 11.9262C17.8144 12.0258 17.3655 12.0838 16.9181 12.1275C16.4316 12.175 15.942 12.1908 15.4534 12.2076C15.2681 12.214 15.0812 12.1897 14.8964 12.1692C14.7445 12.1523 14.637 12.0005 14.6458 11.8335C14.6547 11.6607 14.7774 11.5363 14.9611 11.54C15.3291 11.5474 15.6982 11.5932 16.0646 11.5737C16.9077 11.5289 17.7517 11.4662 18.5588 11.1832C18.707 11.1311 18.8464 11.0557 18.9931 10.9998C19.2995 10.8823 19.4556 10.6826 19.3501 10.3164C19.2875 10.3422 19.218 10.3691 19.1502 10.3996C18.6277 10.6325 18.079 10.7506 17.5153 10.8386C16.8398 10.944 16.1607 11.0009 15.4826 10.9798C14.5174 10.9492 13.5533 10.8649 12.6367 10.515C12.2676 10.3743 11.8923 10.2342 11.6824 9.86317C11.6167 9.74671 11.5671 9.6018 11.565 9.46953C11.554 8.67434 11.5676 7.87915 11.5551 7.08396C11.5499 6.76461 11.6652 6.52432 11.9064 6.3325C11.9205 6.32249 11.9351 6.31248 11.9492 6.30247L11.9502 6.30089ZM12.1898 9.09538C12.0489 9.19498 12.0708 9.3009 12.1789 9.40946C12.205 9.46584 12.2159 9.54278 12.2598 9.57492C12.4112 9.68559 12.5625 9.80995 12.7338 9.8774C13.5951 10.2178 14.5049 10.3164 15.4179 10.3485C15.9044 10.3654 16.394 10.3058 16.8821 10.2768C17.5299 10.2389 18.1568 10.0993 18.7696 9.88478C19.2676 9.71035 19.407 9.53698 19.359 9.06587C19.2337 9.13174 19.1256 9.21342 19.0045 9.24768C18.5916 9.36466 18.1767 9.4806 17.7564 9.56596C17.3905 9.64027 17.0178 9.69981 16.6461 9.71878C16.1398 9.74461 15.6309 9.73459 15.1235 9.72195C14.8103 9.71404 14.4981 9.65818 14.1844 9.65081C13.8811 9.64343 13.5992 9.53487 13.309 9.47585C12.9264 9.39839 12.562 9.22713 12.1903 9.09644L12.1898 9.09538ZM12.1789 7.91024C12.0635 8.00246 12.0635 8.09415 12.1789 8.18637C12.2091 8.24802 12.2232 8.33392 12.2723 8.36712C12.4707 8.49939 12.6659 8.658 12.8872 8.7302C13.6869 8.99104 14.5195 9.0859 15.3552 9.12806C15.6956 9.14545 16.0385 9.09855 16.3804 9.09486C17.0455 9.08748 17.6948 8.98103 18.3374 8.81767C18.6506 8.7381 18.9398 8.61479 19.2039 8.42192C19.4091 8.27226 19.3867 8.07992 19.3673 7.90233C19.0244 7.99613 18.6966 8.08888 18.3672 8.1753C18.0425 8.26067 17.7199 8.36237 17.3895 8.41507C17.045 8.46988 16.6848 8.53364 16.3465 8.48516C16.0114 8.43668 15.6663 8.64167 15.349 8.42508C15.1699 8.55156 14.8301 8.53153 14.6923 8.38662C14.6427 8.41191 14.578 8.47093 14.5456 8.4567C14.3754 8.38029 14.2047 8.37081 14.0267 8.40611C14.022 8.40717 14.0163 8.39821 14.0106 8.3961C13.9218 8.36554 13.82 8.29123 13.7464 8.31389C13.4572 8.40137 13.2443 8.16424 12.9702 8.15633C12.7458 8.15001 12.526 7.99666 12.3021 7.9134C12.2655 7.8997 12.2201 7.91077 12.1789 7.91077V7.91024Z" fill="#2A3547"/>
<path d="M5.30777 3.02791C5.39964 3.00999 5.49204 2.97784 5.58443 2.97679C6.3121 2.97099 7.04029 2.97099 7.76796 2.96941C7.87184 3.00788 7.90212 2.94201 7.92039 2.85928L8.01278 2.70329C8.0488 2.65007 8.08482 2.59632 8.12136 2.5431C8.16364 2.45193 8.20644 2.36077 8.24872 2.2696C8.28422 2.21638 8.32024 2.16263 8.35573 2.1094C8.42098 1.95237 8.48623 1.79586 8.55148 1.63882L8.62978 1.5192C8.63239 1.50603 8.63553 1.49285 8.63814 1.48021C8.64805 1.46598 8.65797 1.45228 8.66789 1.43805C8.68042 1.38693 8.69295 1.33582 8.706 1.28418C8.71905 1.2573 8.7321 1.23043 8.74515 1.20355C8.80518 1.0286 8.86521 0.853118 8.94716 0.613349C8.47162 0.708203 8.05767 0.781978 7.64842 0.874197C7.08727 1.00067 6.52247 1.14242 5.94775 1.07655C5.48264 1.02333 5.02902 0.876305 4.56653 0.793044C4.21783 0.730335 3.8634 0.701879 3.51105 0.658668C3.50008 0.669734 3.48964 0.680273 3.47868 0.69134C3.55855 0.964308 3.61597 1.24729 3.72559 1.50761C3.82947 1.7537 3.98972 1.97556 4.1244 2.209C4.35669 2.61213 4.59315 3.01315 4.81396 3.4226C4.8552 3.49901 4.83432 3.6102 4.83902 3.70558C4.84215 3.76935 4.83954 3.83311 4.83954 3.91268C5.49413 3.91268 6.13045 3.91268 6.76729 3.91268C6.8388 3.91268 6.91084 3.90952 6.98183 3.91426C7.16453 3.92744 7.29451 4.0518 7.30077 4.2141C7.30703 4.37746 7.16557 4.52554 6.98287 4.5424C6.93119 4.54715 6.87899 4.54399 6.82679 4.54399C6.08451 4.54399 5.34275 4.53872 4.60046 4.54978C4.49136 4.55136 4.37548 4.61565 4.27734 4.67573C4.0722 4.80114 3.86444 4.92814 3.6807 5.08202C3.44266 5.28121 3.19837 5.48462 3.00732 5.72702C2.62312 6.21447 2.24154 6.70981 1.91633 7.23783C1.40895 8.06201 1.05869 8.96154 0.812303 9.90165C0.623339 10.6231 0.560177 11.3613 0.630647 12.0949C0.704771 12.87 1.01066 13.5867 1.48986 14.198C2.03431 14.8931 2.74318 15.391 3.56064 15.7146C3.92604 15.8595 4.30397 15.986 4.68764 16.0677C5.30516 16.1994 5.9373 16.2157 6.56736 16.1889C6.75163 16.181 6.76468 16.3528 6.86177 16.4323C6.8957 16.4603 6.86438 16.6463 6.80852 16.6921C6.71874 16.7659 6.58459 16.8149 6.46766 16.8191C5.92791 16.8381 5.38764 16.8328 4.85781 16.7048C4.78786 16.6879 4.72365 16.6447 4.66154 16.6157C4.60725 16.6241 4.54043 16.6542 4.48458 16.6405C3.90777 16.4966 3.33774 16.3322 2.81522 16.0366C2.26346 15.7241 1.72841 15.3868 1.31029 14.8973C1.12081 14.6754 0.930276 14.4494 0.776807 14.2017C0.628559 13.9624 0.548171 13.68 0.398879 13.4413C0.202607 13.1272 0.110213 12.7836 0.0726286 12.4295C0.0230385 11.9605 -0.0014955 11.4868 7.04983e-05 11.0157C0.0011145 10.7321 0.0449625 10.4418 0.116477 10.1662C0.253763 9.63553 0.401489 9.10487 0.585233 8.5895C0.830573 7.90181 1.15526 7.2489 1.54937 6.63288C1.65586 6.46688 1.76234 6.30089 1.86883 6.13489C1.89441 6.10802 1.92051 6.08167 1.94609 6.0548C2.11887 5.83505 2.28382 5.60898 2.46496 5.39714C2.9097 4.87755 3.42283 4.43912 4.00068 4.07446C4.24602 3.91953 4.26586 3.76197 4.10874 3.48531C3.81067 2.9594 3.49069 2.44455 3.21925 1.90494C3.01828 1.50603 2.83297 1.09394 2.83975 0.620199C2.84445 0.288738 3.13782 -0.0221717 3.44632 0.0162968C3.5575 0.0299979 3.67548 -0.00794365 3.78614 0.00154173C3.89837 0.00839228 4.01321 0.00417654 4.12283 0.0247282C4.30657 0.0595079 4.48771 0.107462 4.66884 0.153835C4.99196 0.237095 5.31404 0.323518 5.63663 0.408359C5.6549 0.413102 5.67891 0.421533 5.69301 0.414156C5.93626 0.283468 6.17482 0.471595 6.42068 0.421006C6.8482 0.333003 7.2778 0.254485 7.70897 0.190195C8.16155 0.122744 8.61621 0.0626697 9.07192 0.0263091C9.30786 0.00733832 9.51249 0.259228 9.52971 0.501632C9.55634 0.886844 9.44828 1.24413 9.28698 1.5777C8.97744 2.21743 8.6444 2.8461 8.30771 3.47214C8.1652 3.7372 8.1224 3.7899 8.41785 4.04231C8.85111 4.41224 9.31935 4.74212 9.74165 5.12417C10.0068 5.36342 10.237 5.65114 10.4437 5.94519C10.7314 6.35517 10.984 6.79044 11.2476 7.21781C11.3364 7.36114 11.3635 7.50817 11.2095 7.63358C11.2006 7.6241 11.1912 7.61514 11.1824 7.60566C11.1813 7.61514 11.1798 7.62463 11.1787 7.63464C11.0258 7.76796 10.877 7.74372 10.7747 7.583C10.3832 6.9675 10.0481 6.30932 9.50048 5.8087C9.10898 5.45142 8.71122 5.10099 8.31606 4.74739C8.29257 4.73633 8.26856 4.72579 8.24507 4.71472C7.94231 4.52027 7.68914 4.28208 7.591 3.919C7.56595 3.82731 7.57169 3.72719 7.56125 3.60335H5.34588C5.33544 3.59281 5.325 3.58227 5.31456 3.57173C5.12716 3.3873 5.09427 3.26557 5.26706 3.05794C5.28063 3.04793 5.29368 3.03792 5.30725 3.02791H5.30777Z" fill="#010101"/>
<path d="M13.748 11.3745C14.3927 11.9468 14.8082 12.6556 15.0462 13.4882C15.1537 13.8644 15.1136 14.2428 15.1658 14.6148C15.2127 14.9526 15.135 15.2825 15.0473 15.5671C14.886 16.0924 14.6578 16.6094 14.2951 17.0499C13.8973 17.5332 13.4421 17.9405 12.8877 18.2203C12.4352 18.4485 11.9492 18.5813 11.4423 18.6403C10.3305 18.7699 9.36789 18.4137 8.50189 17.7392C7.78101 17.178 7.31434 16.435 7.09093 15.5539C6.9907 15.1587 6.94685 14.7344 6.96304 14.3271C6.9787 13.934 7.06796 13.5324 7.19167 13.1567C7.39108 12.5512 7.69488 11.9969 8.18817 11.5705C8.29988 11.4741 8.48519 11.4673 8.60368 11.5727C8.72844 11.6833 8.75611 11.8272 8.65536 11.9531C8.55253 12.0812 8.41002 12.176 8.29309 12.2941C8.25603 12.331 8.24977 12.3968 8.2221 12.4458C8.13806 12.595 8.06863 12.7578 7.9611 12.8874C7.75595 13.1351 7.73612 13.446 7.65886 13.7327C7.45737 14.4794 7.57064 15.2113 7.86714 15.908C8.27848 16.8755 8.98996 17.5395 9.98803 17.853C10.3404 17.9637 10.7194 18.0201 11.0889 18.0354C11.3442 18.0459 11.6026 17.9331 11.862 17.8931C12.1444 17.8499 12.4091 17.7661 12.6617 17.6301C13.5272 17.1643 14.1223 16.4682 14.3942 15.5165C14.5775 14.8751 14.6046 14.2217 14.4141 13.5688C14.2089 12.8664 13.8477 12.2646 13.2829 11.8029C12.8011 11.4093 12.2572 11.1432 11.6323 11.0641C11.1067 10.9977 10.5862 10.9914 10.0726 11.1437C9.88154 11.2006 9.6884 11.2507 9.49787 11.3102C9.46864 11.3192 9.44724 11.3592 9.42583 11.3877C9.31674 11.5347 9.15178 11.4999 9.02442 11.4683C8.92837 11.4446 8.84902 11.3339 8.85999 11.189C8.87199 11.0304 8.94037 10.955 9.08653 10.9002C9.27393 10.8302 9.44828 10.7248 9.62837 10.6352C9.77766 10.5609 9.92695 10.4876 10.0768 10.4149C10.093 10.407 10.1123 10.4012 10.13 10.4012C10.4745 10.3986 10.8191 10.3965 11.1636 10.3949C12.1282 10.3901 12.965 10.7358 13.7052 11.3429C13.7193 11.3534 13.7339 11.3634 13.748 11.374V11.3745Z" fill="#2A3547"/>
<path d="M10.3059 13.3917C10.1791 13.5456 10.0945 13.7032 10.2088 13.9076C10.3226 14.1116 10.4907 14.2164 10.7188 14.2207C10.9725 14.2249 11.2267 14.2312 11.4804 14.2196C11.9398 14.1985 12.4399 14.7028 12.4691 15.1513C12.5067 15.7378 12.2144 16.1899 11.6501 16.357C11.554 16.3854 11.4507 16.3902 11.3259 16.4097C11.3259 16.5625 11.3264 16.7311 11.3259 16.8997C11.3244 17.1706 11.2205 17.2934 10.9647 17.3266C10.8733 17.3387 10.7026 17.1448 10.7016 17.0225C10.6995 16.8196 10.7011 16.6168 10.7011 16.3981C10.3602 16.4149 10.0669 16.3095 9.84605 16.0561C9.66909 15.8527 9.52658 15.625 9.52815 15.3362C9.52919 15.146 9.63516 15.0169 9.80063 15.0106C10.0888 15 10.1352 15.039 10.154 15.3051C10.1723 15.5623 10.3774 15.7594 10.6301 15.7599C10.8838 15.7604 11.138 15.762 11.3917 15.7599C11.5775 15.7583 11.7983 15.6008 11.8343 15.449C11.8928 15.2024 11.7983 14.9879 11.5807 14.8899C11.5253 14.8651 11.4596 14.8578 11.398 14.8551C11.0764 14.8393 10.7533 14.8441 10.4338 14.8103C10.0376 14.7682 9.62837 14.3672 9.57147 13.9693C9.49004 13.4033 9.72546 12.8505 10.3451 12.6698C10.4584 12.6366 10.5768 12.6224 10.7011 12.5976C10.7011 12.4047 10.7 12.2213 10.7011 12.038C10.7032 11.8293 10.7804 11.7413 10.9621 11.7371C11.1928 11.7318 11.3181 11.8309 11.3249 12.0359C11.3311 12.2372 11.3264 12.4385 11.3264 12.6429C11.6684 12.5813 12.1361 12.8242 12.3088 13.143C12.4237 13.3549 12.5411 13.5635 12.4639 13.826C12.4174 13.9825 12.3115 14.0109 12.1768 14.0273C12.0217 14.0462 11.9408 13.9545 11.8813 13.8381C11.8505 13.778 11.8469 13.7037 11.8354 13.6347C11.8004 13.426 11.6422 13.2795 11.4355 13.2769C11.149 13.2726 10.8624 13.2684 10.5763 13.2779C10.4996 13.2805 10.4249 13.3322 10.3493 13.3612C10.3352 13.3717 10.3211 13.3823 10.307 13.3928L10.3059 13.3917Z" fill="#010101"/>
<path d="M8.35521 2.10887C8.31971 2.1621 8.2837 2.21585 8.2482 2.26907C8.18347 2.14734 8.23933 2.10782 8.35521 2.10887Z" fill="#010101"/>
<path d="M8.12083 2.54309C8.08482 2.59632 8.0488 2.65007 8.01226 2.70329C7.99555 2.61371 7.99242 2.53308 8.12083 2.54309Z" fill="#010101"/>
<path d="M7.91987 2.85927C7.9016 2.942 7.87184 3.00788 7.76744 2.96941C7.81808 2.93252 7.86923 2.89616 7.91987 2.85927Z" fill="#CCCCCC"/>
<path d="M17.5774 6.17441C17.6165 6.15228 17.6557 6.12962 17.6948 6.10749C17.7095 6.22658 17.6317 6.17916 17.5774 6.17441Z" fill="#F6F6F6"/>
<path d="M1.94765 6.05479C1.92208 6.08167 1.89598 6.10802 1.8704 6.13489C1.79314 6.00684 1.92886 6.08852 1.94765 6.05479Z" fill="#010101"/>
<path d="M11.9502 6.30089L11.9074 6.33092C11.9215 6.32091 11.9361 6.3109 11.9502 6.30089Z" fill="#020202"/>
<path d="M11.1792 7.63411C11.1803 7.62462 11.1818 7.61514 11.1829 7.60513C11.1918 7.61461 11.2012 7.62357 11.21 7.63306C11.1996 7.63358 11.1897 7.63411 11.1792 7.63411Z" fill="#FBFBFB"/>
<path d="M12.1898 9.09538C12.1862 9.20025 12.1825 9.30459 12.1789 9.40946C12.0708 9.3009 12.0489 9.19551 12.1898 9.09538Z" fill="#010101"/>
<path d="M12.1789 7.91024C12.1789 8.00246 12.1789 8.09415 12.1789 8.18637C12.0635 8.09415 12.0635 8.00246 12.1789 7.91024Z" fill="#010101"/>
</svg>
