<svg width="20" height="21" viewBox="0 0 20 21" fill="none" xmlns="http://www.w3.org/2000/svg">
<path d="M10.521 0.0396729C10.7506 0.0925509 10.9849 0.131681 11.2097 0.200951C13.0286 0.760929 14.1749 1.97448 14.5689 3.87333C14.8266 5.11438 14.5851 6.27981 13.9172 7.35218C13.887 7.4003 13.8188 7.44947 13.8438 7.50288C13.8766 7.57374 13.9599 7.53355 14.0197 7.53355C15.4929 7.53619 16.9666 7.53566 18.4398 7.53725C19.3581 7.53778 19.9895 8.18025 19.9901 9.1183C19.9911 11.5888 19.9724 14.0598 20.001 16.5302C20.0104 17.3445 19.4581 18.2054 18.3539 18.1927C16.4523 18.1705 14.5502 18.199 12.6486 18.1737C12.2321 18.1679 11.9552 18.2879 11.6959 18.6157C11.2738 19.1503 10.8032 19.6458 10.3565 20.1603C10.2909 20.2359 10.2061 20.283 10.1322 20.3459H9.89845C9.83754 20.2782 9.75009 20.247 9.68866 20.1756C9.16862 19.5771 8.63816 18.988 8.12541 18.3831C7.99631 18.2308 7.86617 18.1827 7.67617 18.1832C5.67096 18.189 3.66575 18.1832 1.66003 18.1885C1.11344 18.1895 0.660549 18.0119 0.324266 17.5592C0.176426 17.3599 0.118123 17.124 0.0400391 16.8956V8.72595C0.0759579 8.71432 0.0868897 8.68153 0.0946981 8.65033C0.248264 8.02584 0.854198 7.51663 1.64649 7.52985C3.09314 7.55417 4.5403 7.53725 5.98694 7.53619C6.0593 7.53619 6.13634 7.55417 6.2113 7.51081C6.153 7.41616 6.10095 7.33314 6.05097 7.24906C5.43202 6.20049 5.21026 5.07049 5.45805 3.8728C5.84587 1.99669 6.97965 0.794771 8.76102 0.213642C9.0036 0.134325 9.2592 0.0973099 9.50907 0.0402016C9.84691 0.0402016 10.1842 0.0402016 10.5221 0.0402016L10.521 0.0396729ZM0.81828 12.861C0.81828 14.0836 0.831814 15.3066 0.810992 16.5286C0.803183 16.9913 1.06034 17.4059 1.67617 17.4016C3.77976 17.3879 5.88387 17.3969 7.98798 17.3921C8.19777 17.3921 8.35654 17.4535 8.49761 17.6184C8.95311 18.152 9.42525 18.6713 9.87971 19.2053C9.99527 19.3412 10.0525 19.3174 10.1551 19.1979C10.6168 18.6617 11.09 18.1356 11.5523 17.5994C11.6788 17.4529 11.8209 17.3927 12.0109 17.3932C14.102 17.3979 16.1926 17.3974 18.2837 17.3974C18.368 17.3974 18.4528 17.3985 18.5367 17.3895C18.964 17.3408 19.2103 17.0601 19.2103 16.6206C19.2108 14.1158 19.2113 11.611 19.2113 9.10614C19.2113 8.62495 18.9203 8.32778 18.4492 8.32778C16.7152 8.32778 14.9817 8.32883 13.2477 8.32619C13.1374 8.32619 13.0525 8.35263 12.9666 8.4256C12.2816 9.00462 11.494 9.36101 10.6127 9.47047C9.29459 9.63334 8.10979 9.28328 7.07336 8.43565C6.97393 8.35422 6.87814 8.32619 6.75633 8.32619C5.04212 8.32883 3.32791 8.32831 1.6137 8.32831C1.10042 8.32831 0.8188 8.61279 0.8188 9.13364C0.8188 10.3763 0.81828 11.6184 0.81828 12.861ZM13.8766 4.77807C13.9 2.63757 12.1868 0.849236 10.0385 0.836016C7.89272 0.822797 6.16445 2.58046 6.14727 4.75216C6.13062 6.85988 7.79537 8.7122 10.0093 8.71326C12.2259 8.71432 13.8958 6.86729 13.8766 4.77807Z" fill="#2A3547"/>
<path d="M4.44347 10.5894C5.59912 10.5941 6.55435 11.4608 6.70584 12.586C6.77768 13.1206 6.67408 13.6071 6.41641 14.065C6.35342 14.1771 6.34613 14.2464 6.44764 14.331C6.52729 14.3971 6.60016 14.4754 6.66211 14.5589C6.78757 14.7281 6.76831 14.9375 6.62515 15.0787C6.4872 15.2151 6.29251 15.2284 6.12697 15.1126C6.12177 15.1089 6.11448 15.1062 6.11136 15.1009C5.90105 14.7704 5.67669 14.8561 5.36903 15.0005C3.99111 15.6456 2.42942 14.7292 2.21703 13.1904C2.04004 11.9092 2.98694 10.7781 4.10823 10.6237C4.23056 10.6068 4.35081 10.5836 4.44347 10.5894ZM4.58142 14.4119C4.69907 14.4146 4.90938 14.3548 5.11396 14.2665C5.19204 14.2327 5.21547 14.1935 5.14363 14.1243C5.04941 14.0338 4.95415 13.9429 4.87138 13.8419C4.72041 13.6579 4.7303 13.4411 4.88543 13.2914C5.04733 13.1354 5.2493 13.1333 5.42734 13.2904C5.50074 13.3549 5.57153 13.4247 5.63452 13.4998C5.74176 13.6277 5.79173 13.5987 5.84951 13.4511C6.22015 12.5025 5.54707 11.4359 4.5403 11.3852C3.70271 11.3429 3.0036 12.0097 2.97549 12.8774C2.94842 13.7076 3.64285 14.4188 4.58142 14.4119Z" fill="#2A3547"/>
<path d="M16.6595 11.382C16.0916 11.382 15.5616 11.3857 15.0317 11.3804C14.7064 11.3773 14.5226 11.0584 14.6829 10.7871C14.7589 10.6586 14.8766 10.591 15.0218 10.5904C15.8073 10.5883 16.5929 10.5841 17.3779 10.5936C17.7215 10.5978 17.8755 10.9463 17.6798 11.253C17.1004 12.1604 16.52 13.0667 15.9396 13.9736C15.8761 14.073 15.8146 14.1745 15.748 14.2718C15.6814 14.3696 15.7006 14.4088 15.8198 14.4088C16.3066 14.4088 16.7933 14.413 17.28 14.4146C17.6449 14.4162 17.8427 14.5595 17.8355 14.8196C17.8282 15.0766 17.6387 15.2099 17.2847 15.2099C16.5512 15.2099 15.8178 15.2099 15.0843 15.2109C14.8917 15.2109 14.7064 15.2056 14.5955 15.0026C14.4789 14.7895 14.5871 14.6256 14.6954 14.4569C15.3227 13.4792 15.9489 12.5009 16.5752 11.5227C16.596 11.4899 16.6153 11.4566 16.6595 11.382Z" fill="#2A3547"/>
<path d="M10.9942 12.4137C10.9942 12.7769 10.9953 13.1402 10.9942 13.5035C10.9911 14.3199 10.597 14.8661 9.82713 15.1237C9.03067 15.3902 8.10875 15.0026 7.74644 14.2528C7.65274 14.0587 7.60745 13.853 7.60589 13.642C7.59964 12.7769 7.60173 11.9119 7.60485 11.0468C7.60589 10.813 7.72978 10.6449 7.91719 10.5978C8.07388 10.5587 8.25867 10.6502 8.34405 10.803C8.39558 10.8955 8.38361 10.9949 8.38361 11.0928C8.38465 11.8918 8.38361 12.6907 8.38361 13.4903C8.38361 13.9582 8.60172 14.2559 9.03223 14.3818C9.39714 14.4886 9.90886 14.3083 10.1067 14C10.1827 13.8816 10.2144 13.7509 10.2139 13.6071C10.2113 12.7685 10.2144 11.9298 10.2129 11.0912C10.2129 10.9833 10.2217 10.8791 10.2785 10.7871C10.3748 10.6317 10.5184 10.5576 10.6933 10.6031C10.8698 10.6491 10.9906 10.7655 10.9916 10.968C10.9932 11.4502 10.9916 11.9319 10.9916 12.4142C10.9927 12.4142 10.9932 12.4137 10.9942 12.4137Z" fill="#2A3547"/>
<path d="M12.3909 12.8848C12.3909 12.2709 12.3899 11.6575 12.3914 11.0436C12.3925 10.7649 12.5367 10.5962 12.7714 10.591C13.0046 10.5857 13.1676 10.7729 13.1681 11.051C13.1691 12.2852 13.1697 13.5188 13.1691 14.753C13.1691 15.0227 13.0161 15.1998 12.7844 15.2062C12.5502 15.212 12.3914 15.0285 12.3909 14.7456C12.3899 14.1253 12.3909 13.5051 12.3909 12.8848Z" fill="#2A3547"/>
<path d="M9.62515 5.1662C9.62515 4.988 9.62411 4.8098 9.62515 4.6316C9.62671 4.29847 9.73967 4.16416 10.0713 4.13666C10.2634 4.1208 10.4211 4.04994 10.5564 3.91775C10.8178 3.66341 10.8761 3.26735 10.7006 2.93898C10.5434 2.64497 10.1769 2.47576 9.85576 2.54874C9.49449 2.6307 9.25815 2.90831 9.23213 3.28321C9.21495 3.5291 9.0973 3.69407 8.91614 3.72633C8.72562 3.76017 8.55696 3.6761 8.482 3.50583C8.41797 3.35936 8.43931 3.20231 8.46534 3.05742C8.60693 2.2743 9.29668 1.64981 10.19 1.75081C11.0015 1.84281 11.5637 2.52653 11.5804 3.28004C11.596 3.98279 11.2155 4.58666 10.5658 4.83307C10.4263 4.88595 10.3966 4.95522 10.4018 5.08847C10.4102 5.31902 10.4065 5.55062 10.4034 5.7817C10.4003 6.03393 10.241 6.19468 10.0041 6.1915C9.78132 6.18833 9.63088 6.02758 9.62619 5.78011C9.62255 5.57548 9.62515 5.37084 9.62515 5.1662Z" fill="#2A3547"/>
<path d="M10.4034 7.40558C10.4055 7.62503 10.2274 7.80799 10.0119 7.80693C9.80683 7.80587 9.62984 7.62873 9.62567 7.41933C9.62099 7.18878 9.78236 7.01905 10.0072 7.01693C10.2363 7.01482 10.4013 7.17662 10.4034 7.40558Z" fill="#2A3547"/>
</svg>
