<svg width="20" height="18" viewBox="0 0 20 18" fill="none" xmlns="http://www.w3.org/2000/svg">
<path d="M5.24802 11.9052C5.24802 11.4688 5.24491 11.0324 5.24891 10.596C5.25603 9.78861 5.71556 9.19651 6.4945 9.00255C6.6195 8.97141 6.66176 8.92604 6.66087 8.79748C6.65509 8.06525 6.65598 7.33302 6.65909 6.60079C6.65954 6.48824 6.64086 6.41751 6.52297 6.36013C6.32457 6.26315 6.21513 6.08565 6.2138 5.85833C6.21157 5.41481 6.21113 4.97085 6.21691 4.52689C6.21958 4.31024 6.31923 4.13141 6.51585 4.04378C6.6453 3.98595 6.66532 3.91299 6.66132 3.78977C6.64041 3.12605 6.69246 2.47478 7.00563 1.86978C7.53412 0.848843 8.35754 0.233611 9.49637 0.0476629C10.3954 -0.0991385 11.2211 0.0925931 11.9502 0.630865C12.851 1.29637 13.3096 2.20475 13.3399 3.32623C13.3426 3.42232 13.3475 3.51885 13.3403 3.61449C13.3257 3.81824 13.3274 3.99039 13.565 4.09716C13.722 4.16745 13.7834 4.34939 13.7834 4.53223C13.7839 4.96863 13.7856 5.40503 13.7852 5.84143C13.7852 6.07586 13.6891 6.26048 13.4742 6.36235C13.371 6.41128 13.3381 6.47312 13.339 6.58389C13.3457 7.31611 13.3492 8.04834 13.3448 8.78057C13.3439 8.91803 13.3897 8.97052 13.5214 9.00611C14.2981 9.21564 14.7505 9.80729 14.7541 10.6138C14.7576 11.5089 14.7554 12.4039 14.7532 13.2985C14.7519 13.7798 14.4961 14.0298 14.0094 14.0298C13.2256 14.0298 12.4413 14.0303 11.6575 14.0258C11.5374 14.0249 11.4484 14.0605 11.3639 14.1464C10.9639 14.5516 10.5542 14.9467 10.1592 15.3568C10.0404 15.4801 9.97859 15.5005 9.84869 15.3631C9.463 14.9547 9.05685 14.5659 8.66271 14.1655C8.56217 14.0636 8.45541 14.0236 8.3095 14.0254C7.55503 14.0352 6.801 14.0343 6.04653 14.0343C5.49002 14.0343 5.24669 13.7892 5.24669 13.2371C5.24669 12.7931 5.24669 12.3496 5.24669 11.9057L5.24802 11.9052ZM11.8759 13.5703C11.9057 13.5703 11.935 13.5703 11.9649 13.5703C12.4867 13.5716 12.4996 13.5712 12.484 13.0556C12.4671 12.4969 12.6682 12.0516 13.0921 11.6917C13.4075 11.4239 13.7087 11.1383 14.017 10.8625C14.335 10.5778 14.3648 10.4314 14.1753 10.0417C14.0392 9.76147 13.8275 9.55906 13.525 9.48166C13.2247 9.4047 12.9124 9.37267 12.6143 9.29037C12.3786 9.22542 12.298 9.32018 12.2184 9.52303C11.7842 10.6298 11.0823 11.5378 10.141 12.2638C10.032 12.3478 9.96213 12.3456 9.85714 12.2593C9.53596 11.9964 9.22945 11.7202 8.95187 11.4105C8.43228 10.8313 8.04437 10.1743 7.7521 9.45586C7.71606 9.36689 7.71384 9.22587 7.53946 9.26413C7.19292 9.34064 6.83837 9.38513 6.49717 9.47899C6.05543 9.60043 5.81788 9.92874 5.71868 10.3638C5.68309 10.5195 5.72713 10.6409 5.85613 10.753C6.26362 11.1072 6.65954 11.475 7.05991 11.8372C7.22228 11.984 7.33438 12.1615 7.41445 12.3652C7.54658 12.7006 7.50832 13.0503 7.50832 13.3959C7.50832 13.5307 7.54702 13.5783 7.68493 13.5734C7.96563 13.5636 8.24722 13.5752 8.52837 13.5672C8.64937 13.5636 8.73611 13.601 8.82063 13.6873C9.16228 14.0361 9.51638 14.3728 9.85314 14.726C9.97147 14.8501 10.04 14.8404 10.1507 14.7225C10.3883 14.4689 10.6557 14.242 10.8821 13.9796C11.1508 13.6682 11.4439 13.4631 11.8759 13.5703ZM11.149 7.59637C10.984 7.59637 10.8527 7.59459 10.7215 7.59682C10.548 7.59993 10.419 7.52787 10.4239 7.3477C10.4288 7.17287 10.5702 7.12928 10.7264 7.13061C10.9924 7.13284 11.2584 7.12839 11.5245 7.13372C11.6325 7.13595 11.7042 7.09591 11.7638 7.00783C11.964 6.712 12.1312 6.40105 12.2135 6.05095C12.3532 5.45796 12.3434 4.84763 12.4146 4.24663C12.4288 4.12696 12.3505 4.09271 12.2754 4.04911C11.8003 3.77242 11.359 3.45257 10.9911 3.04063C10.9172 2.95834 10.8661 2.95166 10.7726 3.02284C10.5258 3.2119 10.2526 3.35781 9.96658 3.48237C9.2557 3.79244 8.50568 3.95169 7.74365 4.06202C7.59417 4.08381 7.56393 4.13809 7.57861 4.2751C7.62265 4.68614 7.65156 5.09897 7.69382 5.51046C7.80859 6.6257 8.36199 7.44601 9.36291 7.95448C9.94745 8.2512 10.6597 8.11196 11.149 7.59637ZM7.14176 3.72259C7.22628 3.7008 7.30991 3.67055 7.39533 3.65853C7.97363 3.57579 8.54972 3.4846 9.1089 3.31021C9.66096 3.1385 10.2028 2.94366 10.6401 2.54195C10.883 2.31908 10.9515 2.32575 11.1775 2.58466C11.6161 3.08601 12.1388 3.47881 12.7296 3.78265C12.795 3.81646 12.8679 3.89698 12.8813 3.72749C13.0632 1.41158 11.0542 0.0925932 9.27349 0.54056C7.92159 0.880428 6.90999 2.34355 7.14176 3.72259ZM9.98437 11.7673C10.0502 11.77 10.0733 11.7268 10.1063 11.6993C10.8865 11.0431 11.4435 10.2281 11.8292 9.28948C11.8719 9.18583 11.8763 9.124 11.7576 9.06172C11.4769 8.91403 11.29 8.6747 11.2086 8.36953C11.1672 8.21472 11.1085 8.22406 10.9973 8.28901C10.3251 8.68092 9.65251 8.69027 8.98523 8.27789C8.8629 8.20226 8.83354 8.24408 8.79483 8.36508C8.70186 8.65468 8.53192 8.90024 8.26234 9.04837C8.13067 9.12088 8.12577 9.18316 8.17604 9.30772C8.55016 10.2361 9.10267 11.036 9.87182 11.6815C9.91097 11.7139 9.95279 11.7433 9.98437 11.7673ZM5.70533 12.3554H5.70755C5.70755 12.6588 5.70622 12.9617 5.708 13.2651C5.70978 13.5294 5.74981 13.5672 6.02162 13.569C6.18444 13.5699 6.34725 13.569 6.50962 13.5694C7.04923 13.5712 7.04256 13.5712 7.05101 13.0231C7.0559 12.7077 7.00741 12.4115 6.77298 12.1868C6.4687 11.8954 6.14929 11.6201 5.83523 11.3394C5.80898 11.3162 5.76939 11.2842 5.74314 11.29C5.68576 11.302 5.70533 11.3589 5.70533 11.4012C5.70533 11.7193 5.70533 12.0373 5.70533 12.3554ZM14.2954 12.3728H14.2937C14.2937 12.0703 14.295 11.7673 14.2923 11.4648C14.2919 11.4088 14.3212 11.3345 14.2616 11.3007C14.1958 11.2633 14.1566 11.3385 14.1175 11.3736C13.831 11.629 13.5459 11.8861 13.2652 12.1477C13.0676 12.3318 12.9627 12.5645 12.9538 12.835C12.9471 13.0267 12.9564 13.2189 12.9489 13.4106C12.9435 13.5387 12.9965 13.5761 13.1184 13.5734C13.4137 13.5667 13.7091 13.5734 14.0045 13.5694C14.2456 13.5663 14.2954 13.5094 14.2959 13.2593C14.2959 12.964 14.2954 12.6681 14.2954 12.3728ZM7.11507 7.64664C7.11507 7.64664 7.11685 7.64664 7.11774 7.64664C7.11774 7.91978 7.11863 8.19247 7.11774 8.46561C7.1164 8.88733 7.11551 8.88511 7.52433 8.80949C7.76589 8.765 8.00299 8.71651 8.18538 8.53145C8.3958 8.31792 8.46342 7.92912 8.30327 7.7752C7.93627 7.42199 7.64622 7.01806 7.47006 6.5394C7.4189 6.39927 7.31703 6.42507 7.21827 6.42685C7.09149 6.42908 7.11596 6.52917 7.11551 6.60613C7.11373 6.95311 7.11507 7.29966 7.11507 7.64664ZM12.8799 6.93621C12.8639 6.92642 12.8483 6.91619 12.8323 6.90641C12.6237 7.24939 12.3141 7.438 11.9475 7.57057C11.7958 7.62529 11.6245 7.76453 11.6139 7.95047C11.5965 8.25431 11.7095 8.51722 11.996 8.67203C12.2362 8.80148 12.508 8.80637 12.7669 8.86153C12.8612 8.88155 12.8808 8.82861 12.8804 8.74854C12.879 8.14443 12.8799 7.54032 12.8799 6.93621ZM13.3212 5.18349H13.3261C13.3261 4.9922 13.3221 4.80047 13.3274 4.60918C13.3314 4.45838 13.2509 4.41212 13.1197 4.42635C13.0045 4.43925 12.8457 4.35918 12.8377 4.58961C12.8261 4.92014 12.7927 5.24977 12.7594 5.57896C12.7189 5.98111 12.7149 5.98067 13.1192 5.96465C13.1268 5.96465 13.1339 5.96376 13.1415 5.96465C13.2749 5.97444 13.3266 5.91038 13.323 5.78004C13.3181 5.58119 13.3212 5.38234 13.3212 5.18349ZM6.67066 5.1955C6.67066 5.1955 6.67244 5.1955 6.67333 5.1955C6.67333 5.30627 6.67333 5.41748 6.67333 5.52825C6.67511 5.9998 6.67511 5.99668 7.13909 5.96732C7.24585 5.96065 7.28278 5.92951 7.2721 5.82185C7.23118 5.41748 7.18447 5.01311 7.164 4.60741C7.15422 4.41345 7.04834 4.4219 6.91622 4.42368C6.78054 4.42546 6.66176 4.43213 6.66888 4.61897C6.676 4.81115 6.67066 5.00332 6.67066 5.1955Z" fill="#2A3547"/>
<path d="M9.9906 17.9935C7.12752 17.9935 4.26445 17.9948 1.40138 17.9926C0.574839 17.9921 -0.0203741 17.3845 0.000534032 16.5735C0.00765168 16.291 0.073045 16.2247 0.358641 16.222C0.676711 16.2189 0.995225 16.21 1.31285 16.2234C1.48768 16.2309 1.53928 16.1825 1.53884 16.0023C1.53394 13.2059 1.53617 10.4092 1.53661 7.61281C1.53661 7.35391 1.53305 7.095 1.53661 6.8361C1.5464 6.0447 2.06421 5.48108 2.85204 5.45438C3.58338 5.42947 4.3165 5.44727 5.04873 5.45038C5.19909 5.45083 5.3401 5.48953 5.33699 5.67992C5.33388 5.87077 5.18752 5.9028 5.04072 5.90369C4.36009 5.90858 3.67947 5.91125 2.99884 5.90724C2.3458 5.90324 1.99259 6.24578 1.99214 6.89749C1.99214 9.91581 1.99392 12.9346 1.98725 15.9529C1.9868 16.162 2.0344 16.2234 2.25371 16.2234C7.41045 16.2167 12.5667 16.2185 17.7235 16.2194C18.0091 16.2194 18.0095 16.2216 18.0095 15.9329C18.0095 12.9515 18.0077 9.97009 18.0117 6.98824C18.0122 6.60744 17.9548 6.26802 17.5985 6.04604C17.4201 5.93483 17.2284 5.90769 17.0259 5.90769C16.3378 5.90635 15.65 5.90413 14.9618 5.90191C14.888 5.90191 14.8124 5.90724 14.7447 5.86943C14.6593 5.82139 14.6131 5.74532 14.6269 5.64923C14.6438 5.53134 14.7292 5.4664 14.8408 5.45705C14.9952 5.44415 15.1513 5.44549 15.3066 5.44504C15.8764 5.44371 16.4459 5.44237 17.0157 5.44504C17.9161 5.44905 18.4646 5.998 18.4655 6.90149C18.4682 9.92738 18.4704 12.9533 18.4655 15.9792C18.4655 16.1727 18.5091 16.2354 18.7106 16.2234C19.0349 16.2043 19.3614 16.2189 19.6866 16.222C19.9175 16.2243 19.9887 16.2959 19.9985 16.5263C20.034 17.3715 19.4513 17.9899 18.6021 17.9912C16.3458 17.9948 14.089 17.9917 11.8327 17.9912C11.2188 17.9912 10.6045 17.9912 9.9906 17.9912V17.9935ZM4.56739 16.6834V16.6856C3.26575 16.6856 1.96456 16.6896 0.66292 16.6811C0.469854 16.6798 0.448501 16.7434 0.498324 16.9018C0.627332 17.3119 0.966755 17.5384 1.45476 17.5384C3.7026 17.537 5.95089 17.5366 8.19873 17.537C8.69163 17.537 8.69118 17.5388 8.69118 17.0579C8.69118 17.0134 8.68851 16.9685 8.69563 16.9249C8.72855 16.7256 8.64358 16.6776 8.45007 16.6789C7.15599 16.6874 5.86147 16.6834 4.56739 16.6834ZM15.44 16.6825V16.6851C14.2643 16.6851 13.0886 16.682 11.9128 16.6883C11.7175 16.6891 11.4644 16.5939 11.3403 16.7319C11.2197 16.8653 11.3207 17.1149 11.3016 17.3119C11.2851 17.4819 11.3483 17.5437 11.5258 17.5433C13.892 17.5375 16.2586 17.5393 18.6247 17.5366C19.0353 17.5361 19.3494 17.3102 19.4904 16.9307C19.5678 16.7225 19.5411 16.6829 19.3227 16.6829C18.0286 16.6829 16.7341 16.6825 15.44 16.6825ZM9.99949 17.5379V17.5366C10.1031 17.5366 10.2064 17.5366 10.31 17.5366C10.6683 17.5372 10.8474 17.3619 10.8474 17.0108C10.8474 16.9663 10.842 16.9214 10.8487 16.8778C10.8736 16.7149 10.7944 16.6749 10.6459 16.6798C10.3652 16.6887 10.084 16.6838 9.80331 16.6847C9.12447 16.6865 9.12892 16.6865 9.14849 17.3627C9.15249 17.5032 9.20766 17.5419 9.33399 17.5393C9.55553 17.5348 9.77751 17.5379 9.99949 17.5379Z" fill="#2A3547"/>
<path d="M10.0756 7.22043C9.63205 7.22043 9.36825 7.03715 9.13515 6.80138C9.05196 6.7173 9.06308 6.6052 9.1387 6.51979C9.21433 6.43438 9.31843 6.41881 9.42074 6.47619C9.47145 6.50466 9.51283 6.54959 9.55954 6.58518C9.88606 6.83385 10.1378 6.82896 10.4577 6.56917C10.4977 6.53669 10.5324 6.49265 10.5774 6.47219C10.6872 6.42281 10.7971 6.4277 10.8754 6.53135C10.9457 6.62477 10.9426 6.72175 10.859 6.81206C10.6227 7.06829 10.3336 7.20931 10.0756 7.22043Z" fill="#2A3547"/>
<path d="M11.451 4.87742C11.4204 4.86719 11.3705 4.85385 11.3234 4.83472C11.0792 4.73507 10.8358 4.73285 10.592 4.8365C10.4386 4.90189 10.2927 4.90812 10.2273 4.72261C10.1668 4.55135 10.278 4.47083 10.4234 4.41033C10.8162 4.24707 11.1979 4.26753 11.5774 4.45481C11.6895 4.51042 11.7291 4.59717 11.6997 4.7066C11.6708 4.8147 11.5916 4.88009 11.451 4.87742Z" fill="#2A3547"/>
<path d="M8.99813 4.29957C9.17162 4.30536 9.37003 4.35518 9.55909 4.44193C9.67742 4.4962 9.72591 4.59229 9.68632 4.71195C9.64495 4.83696 9.54352 4.91925 9.41273 4.86543C9.10312 4.73775 8.80418 4.73286 8.49367 4.86187C8.37979 4.90902 8.26991 4.85342 8.22587 4.73286C8.18049 4.60875 8.21252 4.50243 8.34464 4.44059C8.54082 4.34851 8.74723 4.30269 8.99813 4.29957Z" fill="#2A3547"/>
</svg>
