<svg width="20" height="20" viewBox="0 0 20 20" fill="none" xmlns="http://www.w3.org/2000/svg">
<path d="M10.0022 19.9994C4.46226 19.99 0.00250724 15.5317 1.05339e-06 10.0009C-0.00250513 4.47326 4.46727 0.00250708 9.99841 1.04906e-06C15.5458 -0.00250498 20.015 4.48517 20 10.0448C19.9856 15.5443 15.5014 20.0088 10.0015 20L10.0022 19.9994ZM16.5884 16.0994C18.6779 13.9887 19.7481 10.3042 18.4286 6.83269C17.0201 3.12815 13.3924 0.766846 9.52349 1.00492C5.56874 1.248 2.24617 3.96892 1.27941 7.73924C0.399111 11.1744 1.71423 14.4573 3.42407 16.0912C3.79687 15.0926 4.36201 14.2211 5.12389 13.4799C5.88326 12.7413 6.77045 12.2075 7.78358 11.8579C5.55307 10.3305 5.54994 7.38527 7.05553 5.78767C8.55987 4.19133 11.0422 4.05789 12.6531 5.50387C13.4369 6.20743 13.8999 7.0858 13.9814 8.13645C14.1023 9.69708 13.4726 10.9232 12.2158 11.8498C14.3247 12.6172 15.7733 14.0325 16.5884 16.0994ZM9.93513 12.4969C9.85243 12.5026 9.6889 12.512 9.52537 12.5239C7.11818 12.693 4.97916 14.3953 4.27242 16.6958C4.22605 16.8455 4.24547 16.9276 4.37204 17.0297C7.59937 19.6397 12.3041 19.6598 15.5715 17.0811C15.752 16.9389 15.7752 16.8217 15.7056 16.6143C14.8773 14.1616 12.6023 12.5107 9.93576 12.4976L9.93513 12.4969ZM13.0021 8.49105C12.9989 6.84021 11.6512 5.49697 9.99841 5.49823C8.34496 5.49885 7.00039 6.84271 6.99914 8.49481C6.99789 10.1569 8.3506 11.5052 10.0141 11.5002C11.6625 11.4952 13.0052 10.1432 13.0021 8.49042V8.49105Z" fill="#2A3547"/>
</svg>
