<svg width="19" height="24" viewBox="0 0 19 24" fill="none" xmlns="http://www.w3.org/2000/svg">
<path d="M0.198844 0C4.15425 0 8.10966 0 12.0651 0C12.0941 0.0334253 12.1212 0.0688024 12.1524 0.100032C14.2194 2.1685 16.2867 4.2372 18.3561 6.30298C18.4288 6.37569 18.4556 6.44669 18.4554 6.54721C18.4547 7.53435 18.4605 8.5215 18.4605 9.5084C18.461 13.802 18.4608 18.0958 18.4583 22.3893C18.4583 22.7792 18.4454 23.1691 18.4273 23.5585C18.4242 23.627 18.3771 23.701 18.3322 23.7583C18.2424 23.8727 18.1038 23.8505 17.9813 23.8522C17.1125 23.8649 16.2435 23.8815 15.3747 23.8808C10.3594 23.8776 5.34439 23.87 0.329129 23.8639C0.19494 23.8639 0.112231 23.8044 0.0751459 23.6749C0.0607511 23.6246 0.0534317 23.5712 0.0519678 23.519C0.0375729 22.9302 0.0139069 22.3415 0.0134189 21.7528C0.00805135 14.6888 0.00658746 7.62462 0 0.560666C0 0.350355 0.00341572 0.157367 0.192988 0.0222022C0.198112 0.0190305 0.197136 0.00756339 0.198844 0ZM0.745847 0.73926V23.0988H17.6839V6.98442C17.6173 6.98442 17.5607 6.98466 17.5041 6.98442C15.6525 6.97222 13.801 6.961 11.9494 6.94612C11.6518 6.94368 11.5425 6.82974 11.5315 6.5294C11.52 6.21271 11.5088 5.89602 11.5081 5.57934C11.5039 4.01543 11.5034 2.45151 11.5017 0.8876C11.5017 0.840268 11.5017 0.792691 11.5017 0.73926H0.745847ZM12.3015 1.3336V6.1849H17.1194C15.5293 4.5839 13.923 2.96631 12.3015 1.3336Z" fill="#2A3547"/>
<path d="M6.09365 9.60745H6.25321C7.02053 9.60745 7.7876 9.60623 8.55492 9.60915C8.63519 9.6094 8.73839 9.60842 8.79036 9.65429C8.89917 9.74993 8.99359 9.87631 8.96602 10.0369C8.91235 10.3474 8.87014 10.6627 8.78304 10.9645C8.41975 12.2239 7.0742 13.3113 5.48638 13.2088C4.04616 13.1159 2.75136 11.9921 2.50299 10.5658C2.16776 8.63933 3.45476 7.14788 4.96036 6.79533C5.2097 6.73702 5.47516 6.74092 5.73377 6.73068C5.88992 6.72458 6.01362 6.82827 6.04509 6.9871C6.07315 7.12934 6.08584 7.2767 6.08706 7.42187C6.09267 8.09599 6.09218 8.76986 6.09389 9.44398C6.09389 9.49229 6.09365 9.5406 6.09365 9.60745ZM8.13698 10.3448C8.0916 10.3448 8.04866 10.3448 8.00572 10.3448C7.67683 10.3448 7.34795 10.3489 7.01906 10.3438C6.56453 10.3367 6.10999 10.3247 5.65546 10.3099C5.46832 10.3038 5.37537 10.2074 5.36122 10.0232C5.35243 9.90974 5.34194 9.79653 5.33853 9.68284C5.3195 9.02116 5.30242 8.35924 5.28436 7.69757C5.2829 7.64633 5.27924 7.59534 5.27631 7.53532C4.64391 7.64926 4.15376 7.97156 3.7446 8.43536C3.28202 8.95968 3.18638 9.58158 3.21639 10.254C3.26177 11.2638 4.31113 12.4454 5.61056 12.4608C7.13959 12.4788 7.97058 11.3338 8.13698 10.3448Z" fill="#2A3547"/>
<path d="M12.7053 8.93113H11.9699C11.9699 8.98432 11.9699 9.03165 11.9699 9.07898C11.9611 10.6834 11.9531 12.2881 11.9423 13.8925C11.9409 14.1116 11.9292 14.3309 11.9177 14.5497C11.9052 14.7898 11.7974 14.9096 11.5969 14.915C11.3912 14.9204 11.2321 14.7769 11.217 14.5534C11.2006 14.3146 11.1916 14.0745 11.1921 13.8351C11.1967 12.0519 11.2045 10.2686 11.2116 8.48538C11.2121 8.37851 11.3038 8.27311 11.4502 8.23701C11.5556 8.2109 11.6664 8.19846 11.7752 8.19699C12.2341 8.19114 12.6928 8.19114 13.1517 8.19065C13.2579 8.19065 13.385 8.34655 13.4026 8.50612C13.4177 8.64323 13.4277 8.78157 13.4287 8.91917C13.435 9.76823 13.4401 10.617 13.4421 11.4661C13.4443 12.4898 13.4409 13.5133 13.4445 14.5371C13.4453 14.7296 13.2996 14.7971 13.1747 14.8759C13.0605 14.9482 12.9522 14.8928 12.8507 14.8176C12.745 14.7393 12.7018 14.65 12.7021 14.5117C12.7075 12.7082 12.7057 10.9044 12.7057 9.10094L12.7053 8.93113Z" fill="#2A3547"/>
<path d="M8.90845 17.145C6.80949 17.145 4.71052 17.145 2.61156 17.145C2.43273 17.145 2.27804 16.9844 2.26755 16.788C2.2573 16.5958 2.37417 16.4479 2.57228 16.4333C2.84334 16.413 3.11538 16.4008 3.38718 16.4003C6.80949 16.3945 10.2318 16.3894 13.6541 16.3891C14.2018 16.3891 14.7496 16.414 15.2973 16.4279C15.6128 16.436 15.7031 16.7483 15.6194 16.9281C15.5774 17.0181 15.5169 17.0852 15.4103 17.0898C15.0658 17.1052 14.7213 17.1308 14.3768 17.1315C12.554 17.1357 10.7312 17.1335 8.90845 17.1335C8.90845 17.1374 8.90845 17.1411 8.90845 17.145Z" fill="#2A3547"/>
<path d="M8.98823 20.8986C11.1074 20.8986 13.2264 20.901 15.3456 20.8945C15.5354 20.894 15.5784 21.0264 15.6516 21.1394C15.7228 21.2494 15.6891 21.3541 15.6135 21.4537C15.5149 21.5835 15.4032 21.6427 15.2258 21.6423C11.9702 21.6344 8.71424 21.6388 5.45857 21.6332C4.5007 21.6315 3.54308 21.611 2.58521 21.5922C2.29805 21.5866 2.15581 21.3485 2.28536 21.096C2.31732 21.034 2.39686 20.9686 2.46322 20.9574C2.63425 20.9286 2.81016 20.921 2.98412 20.9191C3.84049 20.9106 4.6971 20.904 5.55372 20.902C6.69847 20.8993 7.84323 20.9013 8.98798 20.9013C8.98798 20.9003 8.98823 20.8996 8.98823 20.8986Z" fill="#2A3547"/>
<path d="M9.03239 19.3659C7.15301 19.3659 5.27339 19.3674 3.39401 19.3642C3.09391 19.3637 2.79382 19.3462 2.49421 19.3279C2.33318 19.3181 2.24632 19.1988 2.24511 19.0129C2.24389 18.8289 2.33147 18.7025 2.49323 18.6959C3.02828 18.6742 3.56382 18.6501 4.09911 18.6493C7.84201 18.6442 11.5847 18.6457 15.3276 18.6411C15.5066 18.6411 15.5654 18.7735 15.6484 18.8802C15.7265 18.9804 15.6848 19.0849 15.6279 19.1866C15.5503 19.3254 15.4518 19.3823 15.28 19.3815C13.1976 19.374 11.115 19.3767 9.03239 19.3767C9.03239 19.373 9.03239 19.3696 9.03239 19.3659Z" fill="#2A3547"/>
<path d="M15.6979 10.4582H14.9135C14.9135 10.5028 14.9135 10.5494 14.9135 10.5958C14.9128 11.6315 14.9138 12.6672 14.9106 13.7029C14.9099 13.983 14.8974 14.2631 14.8891 14.5432C14.8847 14.6937 14.8467 14.8276 14.6878 14.8852C14.5351 14.9406 14.4151 14.8767 14.3002 14.7774C14.2106 14.7 14.1755 14.6164 14.176 14.4951C14.1826 13.1793 14.1813 11.8633 14.187 10.5472C14.1877 10.3533 14.2055 10.1581 14.2318 9.9656C14.2543 9.80238 14.3453 9.71869 14.5056 9.70235C15.0319 9.64818 15.5598 9.63452 16.0846 9.70527C16.3535 9.74163 16.4133 9.82385 16.4123 10.0671C16.4067 11.5329 16.4052 12.999 16.4013 14.4648C16.4013 14.5131 16.3921 14.5617 16.384 14.6098C16.3347 14.8981 16.0607 15.0123 15.8219 14.8389C15.7814 14.8096 15.7462 14.7486 15.7414 14.6988C15.7216 14.4931 15.705 14.286 15.7043 14.0796C15.6994 12.9222 15.6994 11.7645 15.6977 10.607C15.6977 10.5594 15.6979 10.5121 15.6979 10.4582Z" fill="#2A3547"/>
<path d="M7.71709 9.28221C7.3965 9.28221 7.07591 9.28856 6.75556 9.28026C6.48279 9.27319 6.37642 9.19194 6.37324 8.94406C6.36544 8.30337 6.37129 7.66219 6.38764 7.02149C6.39349 6.78727 6.49035 6.73189 6.72555 6.72311C7.9818 6.67553 8.84696 7.75197 8.94504 8.72887C8.95382 8.8167 8.9687 8.90892 8.95211 8.99359C8.91552 9.1773 8.79353 9.26782 8.60542 9.26904C8.30923 9.27075 8.01303 9.26953 7.71709 9.26953C7.71709 9.27392 7.71709 9.27782 7.71709 9.28221ZM7.09738 8.55052C7.36649 8.55052 7.62486 8.55613 7.88275 8.54857C8.04353 8.54393 8.06769 8.49465 7.98693 8.35119C7.82078 8.05548 7.5951 7.81785 7.28939 7.66267C7.16106 7.59753 7.10421 7.62242 7.09957 7.76563C7.09152 8.02376 7.09738 8.28238 7.09738 8.55052Z" fill="#2A3547"/>
</svg>
