<svg width="18" height="18" viewBox="0 0 18 18" fill="none" xmlns="http://www.w3.org/2000/svg">
<path d="M17.9995 15.4446V15.6658C17.9761 15.7021 17.9381 15.7361 17.9316 15.7759C17.8228 16.4419 17.4877 16.9722 17.0002 17.3876C16.4869 17.825 15.8893 18.0019 15.2171 18C11.0538 17.9867 6.89045 17.9931 2.72759 17.9946C2.41634 17.9946 2.10885 17.9843 1.81027 17.8732C1.0481 17.5891 0.500612 17.0646 0.188901 16.2807C0.109685 16.0826 0.0618734 15.8712 0 15.6658C0 12.6179 0 9.57045 0 6.52254V6.44882C0 6.32643 0 6.20306 0 6.08018C0.010781 6.06789 0.030468 6.05658 0.0314054 6.0438C0.059061 5.58424 0.207651 5.16104 0.386709 4.74718C0.703107 4.01826 1.19762 3.43876 1.8187 2.99197C2.55509 2.46211 3.3946 2.26452 4.28098 2.266C4.98362 2.26747 5.68626 2.26452 6.3889 2.26747C6.58061 2.26845 6.75357 2.24584 6.93216 2.14017C7.50074 1.80397 8.08526 1.49677 8.65993 1.17237C9.17132 0.883356 9.67615 0.581072 10.1885 0.294026C10.5503 0.0910288 10.9464 0.00353862 11.3528 9.79937e-05C11.9444 -0.00481719 12.4839 0.175078 12.955 0.560429L12.9597 0.565835C12.9976 0.60958 13.0333 0.655292 13.074 0.696088C13.2175 0.840102 13.3965 0.960033 13.5006 1.13059C13.7012 1.45892 13.8568 1.81773 14.0401 2.15835C14.0701 2.2139 14.1414 2.26501 14.2018 2.27828C14.4296 2.32891 14.6663 2.34218 14.8895 2.40706C15.6765 2.63464 16.3697 3.04063 16.9125 3.68796C17.2383 4.07626 17.558 4.47734 17.6564 5.01063L17.7164 5.08534C17.7628 5.30554 17.8092 5.52624 17.8556 5.74644C17.8594 5.79608 17.8636 5.84572 17.8673 5.89537C17.9114 5.96909 17.9559 6.04282 18 6.11655V15.4441L17.9995 15.4446ZM16.9083 5.11877C16.9228 5.13843 16.9374 5.15809 16.9519 5.17775C16.9557 5.17382 16.9599 5.16939 16.9636 5.16546C16.9449 5.15022 16.9261 5.13499 16.9074 5.12024C16.9036 5.09763 16.9041 5.07256 16.8947 5.05241C16.5821 4.36281 16.0969 3.84328 15.4618 3.47906C15.1707 3.31244 14.8623 3.19005 14.5042 3.12959C14.7202 3.5872 14.9284 4.01482 15.1243 4.44883C15.188 4.59039 15.2598 4.65035 15.421 4.64838C15.8766 4.64298 16.3036 4.77471 16.7002 5.01113C16.7672 5.05143 16.8389 5.08289 16.9088 5.11877H16.9083ZM1.0556 5.12123C1.05044 5.13941 1.04529 5.15809 1.04013 5.17628C1.05653 5.16055 1.07341 5.14433 1.08982 5.1286C1.10716 5.12565 1.12919 5.1286 1.14044 5.11828C1.39637 4.89464 1.70011 4.7924 2.01838 4.70982C2.21572 4.65871 2.42384 4.70245 2.61509 4.58252C2.98961 4.34807 3.37866 4.13868 3.76303 3.92143C4.0813 3.74104 4.40192 3.56508 4.72019 3.38518C4.89878 3.28442 5.07502 3.17875 5.25268 3.07553C4.7366 3.05439 4.23083 3.07405 3.72459 3.09322C3.31351 3.10895 2.93664 3.25641 2.57337 3.44023C2.15666 3.65159 1.8023 3.95878 1.51637 4.3348C1.33497 4.57318 1.20747 4.85728 1.0556 5.12073V5.12123ZM9.48538 4.60022C9.47132 4.61054 9.45725 4.62135 9.44319 4.63167C9.46241 4.62971 9.48116 4.62725 9.50038 4.62528H14.387C14.0279 3.87375 13.6815 3.14925 13.3318 2.41738C13.2929 2.43508 13.2667 2.44491 13.2428 2.45818C12.8608 2.67347 12.4792 2.88973 12.0977 3.10551C11.387 3.50708 10.6764 3.90767 9.96677 4.31071C9.80412 4.40312 9.64569 4.50339 9.48538 4.60022ZM12.6897 1.32818C12.1323 0.747697 11.1606 0.626292 10.4482 1.04015C9.76896 1.43484 9.08554 1.82166 8.40212 2.208C7.48293 2.72753 6.56045 3.24215 5.64126 3.76119C5.1519 4.03792 4.66488 4.32005 4.17692 4.59972C4.16427 4.60759 4.15114 4.61545 4.13849 4.62283C4.1563 4.62332 4.17411 4.6243 4.19192 4.62479C5.35205 4.62479 6.51217 4.62577 7.6723 4.6243C7.74777 4.6243 7.83355 4.62922 7.89636 4.5953C8.38619 4.33283 8.87414 4.06594 9.35741 3.79019C9.7024 3.59359 10.0366 3.37486 10.3816 3.17825C10.6441 3.02883 10.9197 2.90595 11.1831 2.75801C11.5642 2.5437 11.9388 2.31761 12.3161 2.09642C12.5359 1.96764 12.7553 1.83887 12.985 1.70419C12.9175 1.60933 12.8561 1.5238 12.7951 1.43779C12.7872 1.30115 12.7769 1.29033 12.6897 1.3272V1.32818ZM12.3395 12.7162C11.9092 11.8948 11.8506 11.0416 12.2144 10.1888C12.4609 9.61075 12.8608 9.16642 13.42 8.87102C13.7504 8.69653 14.0959 8.57905 14.4442 8.56431C15.3155 8.52745 16.1888 8.5535 17.0616 8.55448C17.1225 8.55448 17.1839 8.55448 17.28 8.55448C17.2491 7.99464 17.2608 7.45839 17.1797 6.93837C17.0836 6.3225 16.725 5.87226 16.1696 5.62159C15.9333 5.51493 15.6863 5.43629 15.443 5.34683C15.4233 5.33946 15.3976 5.34634 15.376 5.35076C15.278 5.37141 15.1805 5.41319 15.083 5.41319C11.0003 5.41564 6.9181 5.41319 2.83539 5.41663C2.60806 5.41663 2.37697 5.44661 2.15338 5.49281C1.63355 5.59996 1.25669 5.92928 0.99138 6.39573C0.780917 6.76535 0.738262 7.17184 0.740137 7.6029C0.752793 10.1396 0.751855 12.6768 0.742012 15.2136C0.740137 15.7503 0.915914 16.1996 1.24825 16.5834C1.60636 16.9978 2.06151 17.2101 2.60149 17.2101C6.83654 17.2101 11.0711 17.2077 15.3062 17.2136C15.954 17.2145 16.4579 16.929 16.8586 16.4261C16.9575 16.3023 16.9871 16.1175 17.0485 15.9602C17.0836 15.9218 17.1188 15.883 17.1539 15.8447C17.1539 15.7356 17.1544 15.6264 17.1549 15.5173C17.1783 15.4927 17.2017 15.4677 17.2252 15.4431V14.0634C17.1413 14.0634 17.0541 14.0664 16.9674 14.0634C15.9643 14.0266 14.9579 14.1425 13.9567 13.998C13.9323 13.9892 13.9074 13.9799 13.8831 13.971C13.802 13.9435 13.7214 13.916 13.6403 13.8879C13.6192 13.8781 13.5981 13.8678 13.577 13.858C13.2653 13.6766 12.9522 13.4972 12.7164 13.2052C12.5912 13.0504 12.4651 12.8966 12.3391 12.7422C12.3391 12.7334 12.3391 12.725 12.3391 12.7162H12.3395ZM17.2331 9.34877C16.3308 9.34877 15.4473 9.33796 14.5646 9.35615C14.3373 9.36057 14.1043 9.43282 13.8873 9.51294C13.2161 9.76066 12.7473 10.5279 12.7295 11.2446C12.7136 11.8747 12.9554 12.4006 13.404 12.8135C13.6806 13.0681 14.0073 13.2554 14.3799 13.2632C15.2696 13.2819 16.1593 13.2721 17.0494 13.2735C17.1117 13.2735 17.1741 13.2735 17.2341 13.2735V9.34877H17.2331Z" fill="white"/>
<path d="M12.7951 1.43926C12.76 1.40239 12.7248 1.36553 12.6897 1.32867C12.7769 1.2918 12.7872 1.30261 12.7951 1.43926Z" fill="white"/>
<path d="M1.05559 5.12171C1.06684 5.12417 1.07856 5.12663 1.08981 5.12958C1.07341 5.14531 1.05653 5.16153 1.04013 5.17725C1.04528 5.15907 1.05044 5.14039 1.05559 5.1222V5.12171Z" fill="#040404"/>
<path d="M9.48538 4.60071C9.49053 4.60907 9.49522 4.61742 9.50037 4.62578C9.48116 4.62774 9.46241 4.6302 9.44319 4.63217C9.45725 4.62185 9.47131 4.61103 9.48538 4.60071Z" fill="#878787"/>
<path d="M4.17692 4.60071L4.19239 4.60808V4.62578C4.17411 4.62529 4.1563 4.6243 4.13849 4.62381C4.15114 4.61595 4.16427 4.60808 4.17692 4.60071Z" fill="#878787"/>
<path d="M12.3395 12.7432C12.3311 12.7422 12.3226 12.7412 12.3147 12.7407C12.3231 12.7329 12.3311 12.725 12.3395 12.7171C12.3395 12.726 12.3395 12.7343 12.3395 12.7432Z" fill="#020202"/>
<path d="M12.9545 0.560915C12.9611 0.55305 12.9681 0.545186 12.9747 0.537322C12.9695 0.547152 12.9644 0.556491 12.9592 0.566322L12.9545 0.560915Z" fill="#FDFDFD"/>
<path d="M14.5759 12.4955C14.0415 12.494 13.4467 11.9784 13.4964 11.2249C13.5306 10.7054 13.9407 10.1234 14.6063 10.1381C15.279 10.1529 15.7519 10.6547 15.7369 11.3207C15.721 12.0246 15.2462 12.4719 14.5759 12.4955ZM14.6204 11.6845C14.8815 11.6668 14.9968 11.5252 14.9771 11.2475C14.9626 11.0455 14.7826 10.9236 14.5285 10.9442C14.3626 10.9575 14.2234 11.1497 14.2379 11.3453C14.2543 11.5645 14.4057 11.6987 14.6204 11.6845Z" fill="white"/>
<path d="M14.6204 11.6845C14.4062 11.6987 14.2543 11.5645 14.2379 11.3453C14.2234 11.1492 14.3621 10.9575 14.5285 10.9442C14.7826 10.9236 14.9626 11.0455 14.9771 11.2475C14.9968 11.5257 14.8815 11.6673 14.6204 11.6845Z" fill="#FEFEFE"/>
</svg>
